<?xml version="1.0" encoding="utf-8"?>
<!-- Generator: Adobe Illustrator 13.0.0, SVG Export Plug-In . SVG Version: 6.00 Build 14948)  -->
<!DOCTYPE svg PUBLIC "-//W3C//DTD SVG 1.1//EN" "http://www.w3.org/Graphics/SVG/1.1/DTD/svg11.dtd">
<svg version="1.1" id="Layer_1" xmlns="http://www.w3.org/2000/svg" xmlns:xlink="http://www.w3.org/1999/xlink" x="0px" y="0px"
	 width="720px" height="365.855px" viewBox="0 0 720 365.855" enable-background="new 0 0 720 365.855" xml:space="preserve">
<g>
	<defs>
		<rect id="SVGID_1_" x="14.988" y="238.609" width="586.852" height="3.188"/>
	</defs>
	<clipPath id="SVGID_2_">
		<use xlink:href="#SVGID_1_"  overflow="visible"/>
	</clipPath>
	<rect x="3.438" y="232.375" clip-path="url(#SVGID_2_)" fill="#FFFFFF" width="62.344" height="15.656"/>
	<rect x="65.773" y="232.375" clip-path="url(#SVGID_2_)" fill="#FFFFFF" width="12.414" height="15.656"/>
	<rect x="78.188" y="232.375" clip-path="url(#SVGID_2_)" fill="#F3F3F3" width="12.414" height="15.656"/>
	<rect x="90.602" y="232.375" clip-path="url(#SVGID_2_)" fill="#E7E7E7" width="12.414" height="15.656"/>
	<rect x="103.012" y="232.375" clip-path="url(#SVGID_2_)" fill="#DBDBDB" width="12.406" height="15.656"/>
	<rect x="115.418" y="232.375" clip-path="url(#SVGID_2_)" fill="#CFCFCF" width="12.414" height="15.656"/>
	<rect x="127.832" y="232.375" clip-path="url(#SVGID_2_)" fill="#C5C5C5" width="12.414" height="15.656"/>
	<rect x="140.238" y="232.375" clip-path="url(#SVGID_2_)" fill="#BABABA" width="12.414" height="15.656"/>
	<rect x="152.652" y="232.375" clip-path="url(#SVGID_2_)" fill="#B0B0B0" width="12.414" height="15.656"/>
	<rect x="165.066" y="232.375" clip-path="url(#SVGID_2_)" fill="#A5A5A5" width="12.406" height="15.656"/>
	<rect x="177.469" y="232.375" clip-path="url(#SVGID_2_)" fill="#9B9B9B" width="12.414" height="15.656"/>
	<rect x="189.883" y="232.375" clip-path="url(#SVGID_2_)" fill="#929292" width="12.414" height="15.656"/>
	<rect x="202.297" y="232.375" clip-path="url(#SVGID_2_)" fill="#898989" width="12.414" height="15.656"/>
	<rect x="214.711" y="232.375" clip-path="url(#SVGID_2_)" fill="#808080" width="12.406" height="15.656"/>
	<rect x="227.109" y="232.375" clip-path="url(#SVGID_2_)" fill="#777777" width="12.414" height="15.656"/>
	<rect x="239.523" y="232.375" clip-path="url(#SVGID_2_)" fill="#6F6F6F" width="12.414" height="15.656"/>
	<rect x="251.938" y="232.375" clip-path="url(#SVGID_2_)" fill="#676767" width="12.414" height="15.656"/>
	<rect x="264.348" y="232.375" clip-path="url(#SVGID_2_)" fill="#5F5F5F" width="12.41" height="15.656"/>
	<rect x="276.758" y="232.375" clip-path="url(#SVGID_2_)" fill="#585858" width="12.41" height="15.656"/>
	<rect x="289.168" y="232.375" clip-path="url(#SVGID_2_)" fill="#515151" width="12.414" height="15.656"/>
	<rect x="301.574" y="232.375" clip-path="url(#SVGID_2_)" fill="#4A4A4A" width="12.414" height="15.656"/>
	<rect x="313.988" y="232.375" clip-path="url(#SVGID_2_)" fill="#444444" width="12.414" height="15.656"/>
	<rect x="326.402" y="232.375" clip-path="url(#SVGID_2_)" fill="#3E3E3E" width="12.406" height="15.656"/>
	<rect x="338.805" y="232.375" clip-path="url(#SVGID_2_)" fill="#383838" width="12.414" height="15.656"/>
	<rect x="351.219" y="232.375" clip-path="url(#SVGID_2_)" fill="#323232" width="12.414" height="15.656"/>
	<rect x="363.633" y="232.375" clip-path="url(#SVGID_2_)" fill="#2D2D2D" width="12.41" height="15.656"/>
	<rect x="376.043" y="232.375" clip-path="url(#SVGID_2_)" fill="#282828" width="12.414" height="15.656"/>
	<rect x="388.453" y="232.375" clip-path="url(#SVGID_2_)" fill="#232323" width="12.406" height="15.656"/>
	<rect x="400.859" y="232.375" clip-path="url(#SVGID_2_)" fill="#1F1F1F" width="12.414" height="15.656"/>
	<rect x="413.273" y="232.375" clip-path="url(#SVGID_2_)" fill="#1B1B1B" width="12.414" height="15.656"/>
	<rect x="425.68" y="232.375" clip-path="url(#SVGID_2_)" fill="#171717" width="12.414" height="15.656"/>
	<rect x="438.094" y="232.375" clip-path="url(#SVGID_2_)" fill="#131313" width="12.41" height="15.656"/>
	<rect x="450.504" y="232.375" clip-path="url(#SVGID_2_)" fill="#101010" width="12.414" height="15.656"/>
	<rect x="462.91" y="232.375" clip-path="url(#SVGID_2_)" fill="#0D0D0D" width="12.414" height="15.656"/>
	<rect x="475.324" y="232.375" clip-path="url(#SVGID_2_)" fill="#0B0B0B" width="12.414" height="15.656"/>
	<rect x="487.738" y="232.375" clip-path="url(#SVGID_2_)" fill="#090909" width="12.414" height="15.656"/>
	<rect x="500.145" y="232.375" clip-path="url(#SVGID_2_)" fill="#060606" width="12.41" height="15.656"/>
	<rect x="512.555" y="232.375" clip-path="url(#SVGID_2_)" fill="#050505" width="12.41" height="15.656"/>
	<rect x="524.965" y="232.375" clip-path="url(#SVGID_2_)" fill="#030303" width="12.414" height="15.656"/>
	<rect x="537.379" y="232.375" clip-path="url(#SVGID_2_)" fill="#020202" width="12.414" height="15.656"/>
	<rect x="549.789" y="232.375" clip-path="url(#SVGID_2_)" fill="#010101" width="12.406" height="15.656"/>
	<rect x="562.195" y="232.375" clip-path="url(#SVGID_2_)" width="12.414" height="15.656"/>
	<rect x="574.609" y="232.375" clip-path="url(#SVGID_2_)" width="12.414" height="15.656"/>
	<rect x="587.016" y="232.375" clip-path="url(#SVGID_2_)" width="12.414" height="15.656"/>
	<rect x="599.43" y="232.375" clip-path="url(#SVGID_2_)" fill="#231F20" width="12.414" height="15.656"/>
</g>
<g>
	<g>
		<g>
			<path fill="#231F20" d="M361.434,210.711c0,16.598,13.594,30.066,30.367,30.066c16.777,0,30.367-13.469,30.367-30.066
				c0-16.613-13.59-30.074-30.367-30.074C375.027,180.637,361.434,194.098,361.434,210.711"/>
			<path fill="none" stroke="#FFFFFF" stroke-width="2.4937" d="M370.961,208.52c0-2.172,0.352-4.277,1.012-6.246
				c2.617-7.859,10.027-13.52,18.758-13.52"/>
			<path fill="#231F20" d="M290.238,210.711c0,16.598,13.605,30.066,30.367,30.066c16.781,0,30.379-13.469,30.379-30.066
				c0-16.613-13.598-30.074-30.379-30.074C303.844,180.637,290.238,194.098,290.238,210.711"/>
			<path fill="none" stroke="#FFFFFF" stroke-width="2.4937" d="M299.656,208.52c0-2.172,0.355-4.277,1.012-6.246
				c2.617-7.859,10.02-13.52,18.758-13.52"/>
		</g>
	</g>
</g>
<g>
	<defs>
		<rect id="SVGID_3_" x="143.711" y="152.82" width="573.762" height="3.195"/>
	</defs>
	<clipPath id="SVGID_4_">
		<use xlink:href="#SVGID_3_"  overflow="visible"/>
	</clipPath>
	<rect x="140.586" y="147.832" clip-path="url(#SVGID_4_)" fill="#9B9B9B" width="12.559" height="13.172"/>
	<rect x="153.152" y="147.832" clip-path="url(#SVGID_4_)" fill="#949494" width="12.555" height="13.172"/>
	<rect x="165.707" y="147.832" clip-path="url(#SVGID_4_)" fill="#8D8D8D" width="12.551" height="13.172"/>
	<rect x="178.258" y="147.832" clip-path="url(#SVGID_4_)" fill="#868686" width="12.562" height="13.172"/>
	<rect x="190.82" y="147.832" clip-path="url(#SVGID_4_)" fill="#808080" width="12.555" height="13.172"/>
	<rect x="203.375" y="147.832" clip-path="url(#SVGID_4_)" fill="#797979" width="12.551" height="13.172"/>
	<rect x="215.926" y="147.832" clip-path="url(#SVGID_4_)" fill="#737373" width="12.562" height="13.172"/>
	<rect x="228.488" y="147.832" clip-path="url(#SVGID_4_)" fill="#6D6D6D" width="12.551" height="13.172"/>
	<rect x="241.039" y="147.832" clip-path="url(#SVGID_4_)" fill="#676767" width="12.555" height="13.172"/>
	<rect x="253.594" y="147.832" clip-path="url(#SVGID_4_)" fill="#616161" width="12.559" height="13.172"/>
	<rect x="266.16" y="147.832" clip-path="url(#SVGID_4_)" fill="#5C5C5C" width="12.555" height="13.172"/>
	<rect x="278.715" y="147.832" clip-path="url(#SVGID_4_)" fill="#565656" width="12.551" height="13.172"/>
	<rect x="291.266" y="147.832" clip-path="url(#SVGID_4_)" fill="#515151" width="12.562" height="13.172"/>
	<rect x="303.828" y="147.832" clip-path="url(#SVGID_4_)" fill="#4C4C4C" width="12.555" height="13.172"/>
	<rect x="316.383" y="147.832" clip-path="url(#SVGID_4_)" fill="#474747" width="12.551" height="13.172"/>
	<rect x="328.934" y="147.832" clip-path="url(#SVGID_4_)" fill="#424242" width="12.562" height="13.172"/>
	<rect x="341.496" y="147.832" clip-path="url(#SVGID_4_)" fill="#3E3E3E" width="12.551" height="13.172"/>
	<rect x="354.047" y="147.832" clip-path="url(#SVGID_4_)" fill="#393939" width="12.555" height="13.172"/>
	<rect x="366.609" y="147.832" clip-path="url(#SVGID_4_)" fill="#353535" width="12.559" height="13.172"/>
	<rect x="379.168" y="147.832" clip-path="url(#SVGID_4_)" fill="#313131" width="12.555" height="13.172"/>
	<rect x="391.723" y="147.832" clip-path="url(#SVGID_4_)" fill="#2D2D2D" width="12.555" height="13.172"/>
	<rect x="404.277" y="147.832" clip-path="url(#SVGID_4_)" fill="#292929" width="12.559" height="13.172"/>
	<rect x="416.836" y="147.832" clip-path="url(#SVGID_4_)" fill="#262626" width="12.555" height="13.172"/>
	<rect x="429.391" y="147.832" clip-path="url(#SVGID_4_)" fill="#222222" width="12.551" height="13.172"/>
	<rect x="441.941" y="147.832" clip-path="url(#SVGID_4_)" fill="#1F1F1F" width="12.562" height="13.172"/>
	<rect x="454.504" y="147.832" clip-path="url(#SVGID_4_)" fill="#1C1C1C" width="12.551" height="13.172"/>
	<rect x="467.055" y="147.832" clip-path="url(#SVGID_4_)" fill="#191919" width="12.555" height="13.172"/>
	<rect x="479.617" y="147.832" clip-path="url(#SVGID_4_)" fill="#171717" width="12.559" height="13.172"/>
	<rect x="492.176" y="147.832" clip-path="url(#SVGID_4_)" fill="#141414" width="12.555" height="13.172"/>
	<rect x="504.73" y="147.832" clip-path="url(#SVGID_4_)" fill="#121212" width="12.555" height="13.172"/>
	<rect x="517.289" y="147.832" clip-path="url(#SVGID_4_)" fill="#0F0F0F" width="12.555" height="13.172"/>
	<rect x="529.844" y="147.832" clip-path="url(#SVGID_4_)" fill="#0D0D0D" width="12.555" height="13.172"/>
	<rect x="542.398" y="147.832" clip-path="url(#SVGID_4_)" fill="#0B0B0B" width="12.551" height="13.172"/>
	<rect x="554.949" y="147.832" clip-path="url(#SVGID_4_)" fill="#0A0A0A" width="12.562" height="13.172"/>
	<rect x="567.512" y="147.832" clip-path="url(#SVGID_4_)" fill="#080808" width="12.551" height="13.172"/>
	<rect x="580.062" y="147.832" clip-path="url(#SVGID_4_)" fill="#070707" width="12.562" height="13.172"/>
	<rect x="592.625" y="147.832" clip-path="url(#SVGID_4_)" fill="#050505" width="12.559" height="13.172"/>
	<rect x="605.184" y="147.832" clip-path="url(#SVGID_4_)" fill="#040404" width="12.555" height="13.172"/>
	<rect x="617.738" y="147.832" clip-path="url(#SVGID_4_)" fill="#030303" width="12.559" height="13.172"/>
	<rect x="630.297" y="147.832" clip-path="url(#SVGID_4_)" fill="#020202" width="12.555" height="13.172"/>
	<rect x="642.852" y="147.832" clip-path="url(#SVGID_4_)" fill="#020202" width="12.555" height="13.172"/>
	<rect x="655.406" y="147.832" clip-path="url(#SVGID_4_)" fill="#010101" width="12.551" height="13.172"/>
	<rect x="667.965" y="147.832" clip-path="url(#SVGID_4_)" fill="#010101" width="12.555" height="13.172"/>
	<rect x="680.52" y="147.832" clip-path="url(#SVGID_4_)" width="12.555" height="13.172"/>
	<rect x="693.074" y="147.832" clip-path="url(#SVGID_4_)" width="12.559" height="13.172"/>
	<rect x="705.637" y="147.832" clip-path="url(#SVGID_4_)" width="12.555" height="13.172"/>
</g>
<g>
	<g>
		<g>
			<path fill="#FFFFFF" d="M716.738,144.996l1.672-16.48V74.918l-10.848-55.891c0,0,1.039-4.379-2.504-7.508
				c0,0-28.984-6.738-56.52-5.07c-27.527,1.668-409.184,1.668-409.184,1.668S152.172,9.23,162.18,19.656l-6.977,39.309l-0.32,85.398
				h68.824l56.938-37.125l56.316,37.547h259.02l31.277-38.375l28.785,38.801L716.738,144.996"/>
		</g>
	</g>
</g>
<g>
	<defs>
		<path id="SVGID_5_" d="M239.371,9.719c0.012,0,0.027,0,0.043,0c5.887,0,382.031-0.023,409.215-1.668
			c25.168-1.527,51.883,4.098,55.59,4.918c1.559,1.535,1.895,3.363,1.895,4.531c0,0.668-0.098,1.121-0.109,1.168l-0.062,0.328
			l0.055,0.336c0,0,10.754,55.438,10.812,55.742c0,0.305,0,53.438,0,53.438c-0.004,0-1.117,11.02-1.516,14.895
			c-2.703,0.008-56.91,0.191-58.445,0.195c-0.93-1.246-29.527-39.789-29.527-39.789s-31.172,38.238-32.102,39.375
			c-1.5,0-256.816,0-257.777,0c-0.793-0.523-56.781-37.859-56.781-37.859s-56.637,36.93-57.426,37.441c-0.914,0-63.715,0-66.754,0
			c0.02-3.082,0.32-83.395,0.32-83.664c0.047-0.27,7.098-39.969,7.098-39.969l-0.562-0.586c-0.316-0.32-0.352-0.492-0.352-0.504
			C163.996,14.047,198.961,10.23,239.371,9.719 M648.441,4.859c-27.168,1.652-405.277,1.668-409.086,1.668
			c-17.711,0.227-75.695,1.625-79.316,10.277c-0.129,0.305-0.25,0.73-0.25,1.234c0,0.562,0.254,1.242,0.719,1.945
			c-0.215,1.172-6.906,38.836-6.906,38.836l-0.32,87.137h70.902c0,0,54.75-35.691,56.453-36.801
			c1.699,1.125,55.836,37.223,55.836,37.223h260.262c0,0,28.082-34.453,30.469-37.375c2.234,3.027,28.043,37.801,28.043,37.801
			l62.941-0.219l1.809-17.91L720,74.766c0,0-10.707-55.207-10.82-55.758c0.059-0.328,0.125-0.789,0.125-1.504
			c0-1.875-0.512-4.812-3.191-7.184l-0.305-0.262l-0.383-0.09C705.133,9.902,675.887,3.191,648.441,4.859z"/>
	</defs>
	<clipPath id="SVGID_6_">
		<use xlink:href="#SVGID_5_"  overflow="visible"/>
	</clipPath>
	<rect x="153.281" clip-path="url(#SVGID_6_)" fill="#FFFFFF" width="12.594" height="149.988"/>
	<rect x="165.875" clip-path="url(#SVGID_6_)" fill="#F7F7F7" width="12.59" height="149.988"/>
	<rect x="178.465" clip-path="url(#SVGID_6_)" fill="#EFEFEF" width="12.598" height="149.988"/>
	<rect x="191.062" clip-path="url(#SVGID_6_)" fill="#E7E7E7" width="12.59" height="149.988"/>
	<rect x="203.652" clip-path="url(#SVGID_6_)" fill="#E0E0E0" width="12.598" height="149.988"/>
	<rect x="216.25" clip-path="url(#SVGID_6_)" fill="#D8D8D8" width="12.59" height="149.988"/>
	<rect x="228.84" clip-path="url(#SVGID_6_)" fill="#D0D0D0" width="12.598" height="149.988"/>
	<rect x="241.441" clip-path="url(#SVGID_6_)" fill="#C9C9C9" width="12.59" height="149.988"/>
	<rect x="254.031" clip-path="url(#SVGID_6_)" fill="#C1C1C1" width="12.598" height="149.988"/>
	<rect x="266.629" clip-path="url(#SVGID_6_)" fill="#BABABA" width="12.59" height="149.988"/>
	<rect x="279.219" clip-path="url(#SVGID_6_)" fill="#B3B3B3" width="12.59" height="149.988"/>
	<rect x="291.809" clip-path="url(#SVGID_6_)" fill="#ABABAB" width="12.598" height="149.988"/>
	<rect x="304.406" clip-path="url(#SVGID_6_)" fill="#A4A4A4" width="12.59" height="149.988"/>
	<rect x="316.996" clip-path="url(#SVGID_6_)" fill="#9D9D9D" width="12.598" height="149.988"/>
	<rect x="329.594" clip-path="url(#SVGID_6_)" fill="#969696" width="12.59" height="149.988"/>
	<rect x="342.184" clip-path="url(#SVGID_6_)" fill="#8F8F8F" width="12.594" height="149.988"/>
	<rect x="354.777" clip-path="url(#SVGID_6_)" fill="#888888" width="12.594" height="149.988"/>
	<rect x="367.371" clip-path="url(#SVGID_6_)" fill="#818181" width="12.594" height="149.988"/>
	<rect x="379.973" clip-path="url(#SVGID_6_)" fill="#7B7B7B" width="12.59" height="149.988"/>
	<rect x="392.562" clip-path="url(#SVGID_6_)" fill="#747474" width="12.598" height="149.988"/>
	<rect x="405.16" clip-path="url(#SVGID_6_)" fill="#6E6E6E" width="12.59" height="149.988"/>
	<rect x="417.75" clip-path="url(#SVGID_6_)" fill="#686868" width="12.594" height="149.988"/>
	<rect x="430.344" clip-path="url(#SVGID_6_)" fill="#616161" width="12.59" height="149.988"/>
	<rect x="442.934" clip-path="url(#SVGID_6_)" fill="#5B5B5B" width="12.598" height="149.988"/>
	<rect x="455.531" clip-path="url(#SVGID_6_)" fill="#555555" width="12.59" height="149.988"/>
	<rect x="468.121" clip-path="url(#SVGID_6_)" fill="#505050" width="12.598" height="149.988"/>
	<rect x="480.719" clip-path="url(#SVGID_6_)" fill="#4A4A4A" width="12.59" height="149.988"/>
	<rect x="493.309" clip-path="url(#SVGID_6_)" fill="#444444" width="12.598" height="149.988"/>
	<rect x="505.906" clip-path="url(#SVGID_6_)" fill="#3F3F3F" width="12.59" height="149.988"/>
	<rect x="518.5" clip-path="url(#SVGID_6_)" fill="#3A3A3A" width="12.598" height="149.988"/>
	<rect x="531.098" clip-path="url(#SVGID_6_)" fill="#343434" width="12.59" height="149.988"/>
	<rect x="543.688" clip-path="url(#SVGID_6_)" fill="#2F2F2F" width="12.598" height="149.988"/>
	<rect x="556.285" clip-path="url(#SVGID_6_)" fill="#2A2A2A" width="12.59" height="149.988"/>
	<rect x="568.875" clip-path="url(#SVGID_6_)" fill="#252525" width="12.598" height="149.988"/>
	<rect x="581.473" clip-path="url(#SVGID_6_)" fill="#202020" width="12.59" height="149.988"/>
	<rect x="594.062" clip-path="url(#SVGID_6_)" fill="#1C1C1C" width="12.594" height="149.988"/>
	<rect x="606.652" clip-path="url(#SVGID_6_)" fill="#181818" width="12.594" height="149.988"/>
	<rect x="619.246" clip-path="url(#SVGID_6_)" fill="#141414" width="12.598" height="149.988"/>
	<rect x="631.844" clip-path="url(#SVGID_6_)" fill="#101010" width="12.59" height="149.988"/>
	<rect x="644.441" clip-path="url(#SVGID_6_)" fill="#0C0C0C" width="12.594" height="149.988"/>
	<rect x="657.035" clip-path="url(#SVGID_6_)" fill="#090909" width="12.594" height="149.988"/>
	<rect x="669.629" clip-path="url(#SVGID_6_)" fill="#060606" width="12.59" height="149.988"/>
	<rect x="682.219" clip-path="url(#SVGID_6_)" fill="#030303" width="12.594" height="149.988"/>
	<rect x="694.812" clip-path="url(#SVGID_6_)" fill="#010101" width="12.59" height="149.988"/>
	<rect x="707.402" clip-path="url(#SVGID_6_)" width="12.598" height="149.988"/>
</g>
<g>
	<defs>
		<polyline id="SVGID_7_" points="664.184,72.422 716.34,72.422 705.996,19.027 165.586,19.027 158.91,57.609 160.301,59.07 
			158.633,59.07 158.633,64.078 156.957,64.078 156.957,75.539 664.184,72.422 		"/>
	</defs>
	<clipPath id="SVGID_8_">
		<use xlink:href="#SVGID_7_"  overflow="visible"/>
	</clipPath>
	<rect x="147.145" y="12.801" clip-path="url(#SVGID_8_)" fill="#FFFFFF" width="18.758" height="68.973"/>
	<rect x="165.902" y="12.801" clip-path="url(#SVGID_8_)" fill="#FFFFFF" width="12.523" height="68.973"/>
	<rect x="178.426" y="12.801" clip-path="url(#SVGID_8_)" fill="#F9EDEA" width="12.52" height="68.973"/>
	<rect x="190.945" y="12.801" clip-path="url(#SVGID_8_)" fill="#F4E1DD" width="12.523" height="68.973"/>
	<rect x="203.469" y="12.801" clip-path="url(#SVGID_8_)" fill="#F0D6D1" width="12.531" height="68.973"/>
	<rect x="216" y="12.801" clip-path="url(#SVGID_8_)" fill="#EDCCC7" width="12.523" height="68.973"/>
	<rect x="228.523" y="12.801" clip-path="url(#SVGID_8_)" fill="#E9C2BC" width="12.523" height="68.973"/>
	<rect x="241.047" y="12.801" clip-path="url(#SVGID_8_)" fill="#E6B9B3" width="12.523" height="68.973"/>
	<rect x="253.57" y="12.801" clip-path="url(#SVGID_8_)" fill="#E3AFA9" width="12.523" height="68.973"/>
	<rect x="266.094" y="12.801" clip-path="url(#SVGID_8_)" fill="#DFA6A1" width="12.527" height="68.973"/>
	<rect x="278.621" y="12.801" clip-path="url(#SVGID_8_)" fill="#DC9E99" width="12.523" height="68.973"/>
	<rect x="291.145" y="12.801" clip-path="url(#SVGID_8_)" fill="#D99791" width="12.523" height="68.973"/>
	<rect x="303.668" y="12.801" clip-path="url(#SVGID_8_)" fill="#D68E8A" width="12.523" height="68.973"/>
	<rect x="316.191" y="12.801" clip-path="url(#SVGID_8_)" fill="#D38784" width="12.531" height="68.973"/>
	<rect x="328.723" y="12.801" clip-path="url(#SVGID_8_)" fill="#D0807D" width="12.523" height="68.973"/>
	<rect x="341.25" y="12.801" clip-path="url(#SVGID_8_)" fill="#CE7B77" width="12.523" height="68.973"/>
	<rect x="353.773" y="12.801" clip-path="url(#SVGID_8_)" fill="#CC7472" width="12.523" height="68.973"/>
	<rect x="366.297" y="12.801" clip-path="url(#SVGID_8_)" fill="#C96E6C" width="12.523" height="68.973"/>
	<rect x="378.82" y="12.801" clip-path="url(#SVGID_8_)" fill="#C76967" width="12.531" height="68.973"/>
	<rect x="391.352" y="12.801" clip-path="url(#SVGID_8_)" fill="#C56363" width="12.523" height="68.973"/>
	<rect x="403.875" y="12.801" clip-path="url(#SVGID_8_)" fill="#C25E5F" width="12.523" height="68.973"/>
	<rect x="416.398" y="12.801" clip-path="url(#SVGID_8_)" fill="#C0595B" width="12.523" height="68.973"/>
	<rect x="428.922" y="12.801" clip-path="url(#SVGID_8_)" fill="#BE5357" width="12.523" height="68.973"/>
	<rect x="441.445" y="12.801" clip-path="url(#SVGID_8_)" fill="#BD4E54" width="12.527" height="68.973"/>
	<rect x="453.973" y="12.801" clip-path="url(#SVGID_8_)" fill="#BB4950" width="12.523" height="68.973"/>
	<rect x="466.496" y="12.801" clip-path="url(#SVGID_8_)" fill="#B9454D" width="12.523" height="68.973"/>
	<rect x="479.02" y="12.801" clip-path="url(#SVGID_8_)" fill="#B7404A" width="12.523" height="68.973"/>
	<rect x="491.551" y="12.801" clip-path="url(#SVGID_8_)" fill="#B63C48" width="12.527" height="68.973"/>
	<rect x="504.078" y="12.801" clip-path="url(#SVGID_8_)" fill="#B43745" width="12.523" height="68.973"/>
	<rect x="516.602" y="12.801" clip-path="url(#SVGID_8_)" fill="#B33343" width="12.523" height="68.973"/>
	<rect x="529.125" y="12.801" clip-path="url(#SVGID_8_)" fill="#B22F41" width="12.523" height="68.973"/>
	<rect x="541.648" y="12.801" clip-path="url(#SVGID_8_)" fill="#B12B3F" width="12.523" height="68.973"/>
	<rect x="554.172" y="12.801" clip-path="url(#SVGID_8_)" fill="#B0273D" width="12.527" height="68.973"/>
	<rect x="566.699" y="12.801" clip-path="url(#SVGID_8_)" fill="#AE233B" width="12.523" height="68.973"/>
	<rect x="579.223" y="12.801" clip-path="url(#SVGID_8_)" fill="#AD203A" width="12.523" height="68.973"/>
	<rect x="591.746" y="12.801" clip-path="url(#SVGID_8_)" fill="#AC1C38" width="12.523" height="68.973"/>
	<rect x="604.27" y="12.801" clip-path="url(#SVGID_8_)" fill="#AC1937" width="12.531" height="68.973"/>
	<rect x="616.801" y="12.801" clip-path="url(#SVGID_8_)" fill="#AB1636" width="12.523" height="68.973"/>
	<rect x="629.324" y="12.801" clip-path="url(#SVGID_8_)" fill="#AA1235" width="12.523" height="68.973"/>
	<rect x="641.848" y="12.801" clip-path="url(#SVGID_8_)" fill="#AA0E35" width="12.523" height="68.973"/>
	<rect x="654.375" y="12.801" clip-path="url(#SVGID_8_)" fill="#AA0C34" width="12.523" height="68.973"/>
	<rect x="666.898" y="12.801" clip-path="url(#SVGID_8_)" fill="#AA0833" width="12.531" height="68.973"/>
	<rect x="679.43" y="12.801" clip-path="url(#SVGID_8_)" fill="#AA0833" width="12.523" height="68.973"/>
	<rect x="691.953" y="12.801" clip-path="url(#SVGID_8_)" fill="#A90533" width="12.523" height="68.973"/>
	<rect x="704.477" y="12.801" clip-path="url(#SVGID_8_)" fill="#A90533" width="12.523" height="68.973"/>
</g>
<g>
	<g>
		<g>
			<polyline fill="#FFFFFF" points="157.613,100.984 157.719,59.07 662.305,58.867 662.305,100.984 155.094,100.984 
				157.613,100.984 			"/>
		</g>
	</g>
</g>
<g>
	<defs>
		<path id="SVGID_9_" d="M659.91,61.262c0,4.004,0,33.332,0,37.332c-4.699,0-490.301,0-499.902,0
			c0.012-4.008,0.086-33.133,0.098-37.133C164.812,61.461,655.188,61.262,659.91,61.262 M662.305,56.477l-506.973,0.199
			c0,0-0.098,37.676-0.109,41.918c-0.012,0-0.129,0-0.129,0v4.789h509.602V56.469L662.305,56.477z"/>
	</defs>
	<clipPath id="SVGID_10_">
		<use xlink:href="#SVGID_9_"  overflow="visible"/>
	</clipPath>
	<rect x="155.094" y="53.277" clip-path="url(#SVGID_10_)" fill="#FFFFFF" width="12.434" height="53.297"/>
	<rect x="167.52" y="53.277" clip-path="url(#SVGID_10_)" fill="#F6F6F6" width="12.434" height="53.297"/>
	<rect x="179.953" y="53.277" clip-path="url(#SVGID_10_)" fill="#EDEDED" width="12.43" height="53.297"/>
	<rect x="192.383" y="53.277" clip-path="url(#SVGID_10_)" fill="#E4E4E4" width="12.434" height="53.297"/>
	<rect x="204.816" y="53.277" clip-path="url(#SVGID_10_)" fill="#DDDDDD" width="12.426" height="53.297"/>
	<rect x="217.234" y="53.277" clip-path="url(#SVGID_10_)" fill="#D4D4D4" width="12.434" height="53.297"/>
	<rect x="229.668" y="53.277" clip-path="url(#SVGID_10_)" fill="#CCCCCC" width="12.434" height="53.297"/>
	<rect x="242.102" y="53.277" clip-path="url(#SVGID_10_)" fill="#C3C3C3" width="12.43" height="53.297"/>
	<rect x="254.527" y="53.277" clip-path="url(#SVGID_10_)" fill="#BBBBBB" width="12.43" height="53.297"/>
	<rect x="266.957" y="53.277" clip-path="url(#SVGID_10_)" fill="#B3B3B3" width="12.434" height="53.297"/>
	<rect x="279.391" y="53.277" clip-path="url(#SVGID_10_)" fill="#ACACAC" width="12.43" height="53.297"/>
	<rect x="291.82" y="53.277" clip-path="url(#SVGID_10_)" fill="#A4A4A4" width="12.426" height="53.297"/>
	<rect x="304.242" y="53.277" clip-path="url(#SVGID_10_)" fill="#9C9C9C" width="12.43" height="53.297"/>
	<rect x="316.672" y="53.277" clip-path="url(#SVGID_10_)" fill="#949494" width="12.434" height="53.297"/>
	<rect x="329.105" y="53.277" clip-path="url(#SVGID_10_)" fill="#8C8C8C" width="12.434" height="53.297"/>
	<rect x="341.531" y="53.277" clip-path="url(#SVGID_10_)" fill="#858585" width="12.434" height="53.297"/>
	<rect x="353.965" y="53.277" clip-path="url(#SVGID_10_)" fill="#7D7D7D" width="12.43" height="53.297"/>
	<rect x="366.395" y="53.277" clip-path="url(#SVGID_10_)" fill="#777777" width="12.426" height="53.297"/>
	<rect x="378.82" y="53.277" clip-path="url(#SVGID_10_)" fill="#707070" width="12.434" height="53.297"/>
	<rect x="391.246" y="53.277" clip-path="url(#SVGID_10_)" fill="#686868" width="12.434" height="53.297"/>
	<rect x="403.68" y="53.277" clip-path="url(#SVGID_10_)" fill="#616161" width="12.43" height="53.297"/>
	<rect x="416.109" y="53.277" clip-path="url(#SVGID_10_)" fill="#5B5B5B" width="12.434" height="53.297"/>
	<rect x="428.543" y="53.277" clip-path="url(#SVGID_10_)" fill="#545454" width="12.434" height="53.297"/>
	<rect x="440.969" y="53.277" clip-path="url(#SVGID_10_)" fill="#4D4D4D" width="12.434" height="53.297"/>
	<rect x="453.402" y="53.277" clip-path="url(#SVGID_10_)" fill="#484848" width="12.426" height="53.297"/>
	<rect x="465.828" y="53.277" clip-path="url(#SVGID_10_)" fill="#424242" width="12.43" height="53.297"/>
	<rect x="478.254" y="53.277" clip-path="url(#SVGID_10_)" fill="#3C3C3C" width="12.43" height="53.297"/>
	<rect x="490.684" y="53.277" clip-path="url(#SVGID_10_)" fill="#363636" width="12.434" height="53.297"/>
	<rect x="503.117" y="53.277" clip-path="url(#SVGID_10_)" fill="#303030" width="12.43" height="53.297"/>
	<rect x="515.547" y="53.277" clip-path="url(#SVGID_10_)" fill="#2A2A2A" width="12.434" height="53.297"/>
	<rect x="527.973" y="53.277" clip-path="url(#SVGID_10_)" fill="#252525" width="12.426" height="53.297"/>
	<rect x="540.398" y="53.277" clip-path="url(#SVGID_10_)" fill="#202020" width="12.434" height="53.297"/>
	<rect x="552.832" y="53.277" clip-path="url(#SVGID_10_)" fill="#1B1B1B" width="12.434" height="53.297"/>
	<rect x="565.266" y="53.277" clip-path="url(#SVGID_10_)" fill="#171717" width="12.43" height="53.297"/>
	<rect x="577.691" y="53.277" clip-path="url(#SVGID_10_)" fill="#121212" width="12.43" height="53.297"/>
	<rect x="590.121" y="53.277" clip-path="url(#SVGID_10_)" fill="#0E0E0E" width="12.434" height="53.297"/>
	<rect x="602.555" y="53.277" clip-path="url(#SVGID_10_)" fill="#0A0A0A" width="12.43" height="53.297"/>
	<rect x="614.98" y="53.277" clip-path="url(#SVGID_10_)" fill="#070707" width="12.426" height="53.297"/>
	<rect x="627.406" y="53.277" clip-path="url(#SVGID_10_)" fill="#040404" width="12.43" height="53.297"/>
	<rect x="639.836" y="53.277" clip-path="url(#SVGID_10_)" fill="#020202" width="12.434" height="53.297"/>
	<rect x="652.27" y="53.277" clip-path="url(#SVGID_10_)" width="12.434" height="53.297"/>
</g>
<g>
	<g>
		<g>
			<rect x="163.848" y="125.18" fill="#FFFFFF" width="51.727" height="13.758"/>
		</g>
	</g>
</g>
<g>
	<defs>
		<polyline id="SVGID_11_" points="655.594,82.539 655.367,75.539 160.379,69.012 160.379,90.832 655.594,82.539 		"/>
	</defs>
	<clipPath id="SVGID_12_">
		<use xlink:href="#SVGID_11_"  overflow="visible"/>
	</clipPath>
	<rect x="153.84" y="65.82" clip-path="url(#SVGID_12_)" fill="#FFFFFF" width="12.445" height="28.207"/>
	<rect x="166.285" y="65.82" clip-path="url(#SVGID_12_)" fill="#FFFDF7" width="12.441" height="28.207"/>
	<rect x="178.727" y="65.82" clip-path="url(#SVGID_12_)" fill="#FEF8EF" width="12.445" height="28.207"/>
	<rect x="191.18" y="65.82" clip-path="url(#SVGID_12_)" fill="#FEF6E9" width="12.441" height="28.207"/>
	<rect x="203.621" y="65.82" clip-path="url(#SVGID_12_)" fill="#FCF2E1" width="12.445" height="28.207"/>
	<rect x="216.066" y="65.82" clip-path="url(#SVGID_12_)" fill="#FCF0DC" width="12.445" height="28.207"/>
	<rect x="228.516" y="65.82" clip-path="url(#SVGID_12_)" fill="#FDEED6" width="12.445" height="28.207"/>
	<rect x="240.961" y="65.82" clip-path="url(#SVGID_12_)" fill="#FBECD0" width="12.445" height="28.207"/>
	<rect x="253.41" y="65.82" clip-path="url(#SVGID_12_)" fill="#FCEACA" width="12.445" height="28.207"/>
	<rect x="265.855" y="65.82" clip-path="url(#SVGID_12_)" fill="#FAE7C4" width="12.438" height="28.207"/>
	<rect x="278.293" y="65.82" clip-path="url(#SVGID_12_)" fill="#FAE6BF" width="12.445" height="28.207"/>
	<rect x="290.742" y="65.82" clip-path="url(#SVGID_12_)" fill="#FBE4B8" width="12.445" height="28.207"/>
	<rect x="303.188" y="65.82" clip-path="url(#SVGID_12_)" fill="#F9E1B3" width="12.445" height="28.207"/>
	<rect x="315.633" y="65.82" clip-path="url(#SVGID_12_)" fill="#F9DFAC" width="12.445" height="28.207"/>
	<rect x="328.082" y="65.82" clip-path="url(#SVGID_12_)" fill="#F8DDA7" width="12.445" height="28.207"/>
	<rect x="340.527" y="65.82" clip-path="url(#SVGID_12_)" fill="#F8DBA0" width="12.445" height="28.207"/>
	<rect x="352.973" y="65.82" clip-path="url(#SVGID_12_)" fill="#F8D99B" width="12.441" height="28.207"/>
	<rect x="365.422" y="65.82" clip-path="url(#SVGID_12_)" fill="#F8D795" width="12.441" height="28.207"/>
	<rect x="377.863" y="65.82" clip-path="url(#SVGID_12_)" fill="#F8D590" width="12.445" height="28.207"/>
	<rect x="390.316" y="65.82" clip-path="url(#SVGID_12_)" fill="#F7D38A" width="12.441" height="28.207"/>
	<rect x="402.758" y="65.82" clip-path="url(#SVGID_12_)" fill="#F7D184" width="12.441" height="28.207"/>
	<rect x="415.203" y="65.82" clip-path="url(#SVGID_12_)" fill="#F6CF7F" width="12.438" height="28.207"/>
	<rect x="427.648" y="65.82" clip-path="url(#SVGID_12_)" fill="#F6CD79" width="12.445" height="28.207"/>
	<rect x="440.094" y="65.82" clip-path="url(#SVGID_12_)" fill="#F5CB73" width="12.441" height="28.207"/>
	<rect x="452.535" y="65.82" clip-path="url(#SVGID_12_)" fill="#F5C96D" width="12.445" height="28.207"/>
	<rect x="464.988" y="65.82" clip-path="url(#SVGID_12_)" fill="#F4C867" width="12.441" height="28.207"/>
	<rect x="477.43" y="65.82" clip-path="url(#SVGID_12_)" fill="#F3C560" width="12.445" height="28.207"/>
	<rect x="489.875" y="65.82" clip-path="url(#SVGID_12_)" fill="#F3C459" width="12.445" height="28.207"/>
	<rect x="502.324" y="65.82" clip-path="url(#SVGID_12_)" fill="#F2C153" width="12.445" height="28.207"/>
	<rect x="514.77" y="65.82" clip-path="url(#SVGID_12_)" fill="#F2C04C" width="12.445" height="28.207"/>
	<rect x="527.219" y="65.82" clip-path="url(#SVGID_12_)" fill="#F1BD44" width="12.445" height="28.207"/>
	<rect x="539.664" y="65.82" clip-path="url(#SVGID_12_)" fill="#F1BC3C" width="12.438" height="28.207"/>
	<rect x="552.102" y="65.82" clip-path="url(#SVGID_12_)" fill="#F0BA35" width="12.445" height="28.207"/>
	<rect x="564.551" y="65.82" clip-path="url(#SVGID_12_)" fill="#F0B82C" width="12.445" height="28.207"/>
	<rect x="576.996" y="65.82" clip-path="url(#SVGID_12_)" fill="#F0B724" width="12.445" height="28.207"/>
	<rect x="589.441" y="65.82" clip-path="url(#SVGID_12_)" fill="#EFB419" width="12.441" height="28.207"/>
	<rect x="601.891" y="65.82" clip-path="url(#SVGID_12_)" fill="#EFB310" width="12.445" height="28.207"/>
	<rect x="614.336" y="65.82" clip-path="url(#SVGID_12_)" fill="#EFB310" width="43.637" height="28.207"/>
</g>
<g>
	<g>
		<g>
			<path fill="#231F20" d="M655.625,144.363c0,0-25.023-18.762-59.645-0.406c0,0-0.836-33.789,5.422-42.551l49.223,0.418
				C650.625,101.824,658.547,107.66,655.625,144.363"/>
			<path fill="#231F20" d="M652.594,128.32c0-14.348-11.625-25.957-25.961-25.957c-14.324,0-25.941,11.609-25.941,25.957
				c0,14.332,11.617,25.949,25.941,25.949C640.969,154.27,652.594,142.652,652.594,128.32"/>
			<path fill="#A7A9AC" d="M336.961,144.363c0,0-22.113-18.762-45.883-4.172h-19.188c0,0-28.785-14.172-47.969,5.02
				c0,0-1.254-43.805,5.418-43.805h101.773C331.113,101.406,336.547,108.086,336.961,144.363"/>
			<path fill="#A7A9AC" d="M333.086,127.477c0-14.332-11.621-25.961-25.957-25.961c-14.34,0-25.961,11.629-25.961,25.961
				c0,14.336,11.621,25.957,25.961,25.957C321.465,153.434,333.086,141.812,333.086,127.477"/>
			<path fill="#A7A9AC" d="M279.695,127.477c0-14.332-11.625-25.961-25.953-25.961c-14.332,0-25.957,11.629-25.957,25.961
				c0,14.336,11.625,25.957,25.957,25.957C268.07,153.434,279.695,141.812,279.695,127.477"/>
			<line fill="none" stroke="#231F20" stroke-width="2.4937" x1="710.059" y1="72.422" x2="710.059" y2="103.281"/>
			<line fill="none" stroke="#231F20" stroke-width="3.1919" x1="718.41" y1="103.066" x2="650.418" y2="103.066"/>
			<line fill="none" stroke="#FFFFFF" stroke-width="3.1171" x1="704.414" y1="27.367" x2="711.926" y2="65.953"/>
			<line fill="none" stroke="#FFFFFF" stroke-width="6.2343" x1="701.555" y1="67.414" x2="696.133" y2="35.715"/>
			<path fill="none" stroke="#FFFFFF" stroke-width="2.4937" d="M609.391,125.422c0-1.973,0.324-3.871,0.914-5.648
				c2.375-7.121,9.09-12.254,16.996-12.254"/>
			<path fill="none" stroke="#FFFFFF" stroke-width="1.596" d="M235.105,124.59c0-1.973,0.316-3.879,0.918-5.664
				c2.367-7.117,9.078-12.246,16.992-12.246 M288.691,124.59c0-1.973,0.324-3.879,0.922-5.664
				c2.367-7.117,9.082-12.246,16.996-12.246"/>
			<path fill="#FFFFFF" d="M168.523,153.375"/>
			<polyline fill="#FFFFFF" points="610.184,91.355 605.441,91.355 628.246,66.945 632.988,66.945 610.184,91.355 			"/>
			<rect x="695.625" y="65.555" fill="#A90533" width="18.672" height="3.109"/>
			<rect x="693.113" y="32.172" fill="#A90533" width="7.777" height="4.074"/>
			<rect x="702.09" y="23.801" fill="#A90533" width="4.504" height="3.828"/>
			<path fill="#00578E" d="M441.773,210.262H551c0,0,44.457-0.273,47.93-1.266c0.5-2.668-0.18-45.301-0.656-52.82
				c-3.512-4.438-31.023-17.406-63-19.75c-15.629-43.117-29.254-51.441-93.289-54.375c0,0,1.086,87.836,0.578,111.793
				c-0.176,0.012-0.34,0.027-0.512,0.039"/>
		</g>
	</g>
</g>
<g>
	<defs>
		<path id="SVGID_13_" d="M442.562,193.844c-4.523,0.441-10.574,0-10.574,0l-1.004-128.34H0v144.758h442.492"/>
	</defs>
	<clipPath id="SVGID_14_">
		<use xlink:href="#SVGID_13_"  overflow="visible"/>
	</clipPath>
	<rect y="59.266" clip-path="url(#SVGID_14_)" fill="#0C6DA0" width="12.645" height="157.23"/>
	<rect x="12.645" y="59.266" clip-path="url(#SVGID_14_)" fill="#1A70A2" width="12.637" height="157.23"/>
	<rect x="25.281" y="59.266" clip-path="url(#SVGID_14_)" fill="#2572A4" width="12.648" height="157.23"/>
	<rect x="37.93" y="59.266" clip-path="url(#SVGID_14_)" fill="#2E75A7" width="12.645" height="157.23"/>
	<rect x="50.578" y="59.266" clip-path="url(#SVGID_14_)" fill="#3579A9" width="12.645" height="157.23"/>
	<rect x="63.219" y="59.266" clip-path="url(#SVGID_14_)" fill="#3C7BAB" width="12.645" height="157.23"/>
	<rect x="75.863" y="59.266" clip-path="url(#SVGID_14_)" fill="#437FAE" width="12.645" height="157.23"/>
	<rect x="88.508" y="59.266" clip-path="url(#SVGID_14_)" fill="#4981B0" width="12.645" height="157.23"/>
	<rect x="101.152" y="59.266" clip-path="url(#SVGID_14_)" fill="#4F85B2" width="12.645" height="157.23"/>
	<rect x="113.797" y="59.266" clip-path="url(#SVGID_14_)" fill="#5588B5" width="12.648" height="157.23"/>
	<rect x="126.445" y="59.266" clip-path="url(#SVGID_14_)" fill="#5B8BB7" width="12.645" height="157.23"/>
	<rect x="139.09" y="59.266" clip-path="url(#SVGID_14_)" fill="#618FBA" width="12.637" height="157.23"/>
	<rect x="151.734" y="59.266" clip-path="url(#SVGID_14_)" fill="#6692BC" width="12.645" height="157.23"/>
	<rect x="164.379" y="59.266" clip-path="url(#SVGID_14_)" fill="#6C96BF" width="12.645" height="157.23"/>
	<rect x="177.023" y="59.266" clip-path="url(#SVGID_14_)" fill="#7299C1" width="12.641" height="157.23"/>
	<rect x="189.664" y="59.266" clip-path="url(#SVGID_14_)" fill="#789DC4" width="12.645" height="157.23"/>
	<rect x="202.312" y="59.266" clip-path="url(#SVGID_14_)" fill="#7EA1C6" width="12.645" height="157.23"/>
	<rect x="214.957" y="59.266" clip-path="url(#SVGID_14_)" fill="#84A5C9" width="12.641" height="157.23"/>
	<rect x="227.598" y="59.266" clip-path="url(#SVGID_14_)" fill="#8AA9CC" width="12.645" height="157.23"/>
	<rect x="240.242" y="59.266" clip-path="url(#SVGID_14_)" fill="#90ADCE" width="12.645" height="157.23"/>
	<rect x="252.895" y="59.266" clip-path="url(#SVGID_14_)" fill="#96B1D1" width="12.637" height="157.23"/>
	<rect x="265.531" y="59.266" clip-path="url(#SVGID_14_)" fill="#9CB5D3" width="12.648" height="157.23"/>
	<rect x="278.18" y="59.266" clip-path="url(#SVGID_14_)" fill="#A3BBD7" width="12.645" height="157.23"/>
	<rect x="290.824" y="59.266" clip-path="url(#SVGID_14_)" fill="#AABFDA" width="12.637" height="157.23"/>
	<rect x="303.469" y="59.266" clip-path="url(#SVGID_14_)" fill="#B0C4DC" width="12.645" height="157.23"/>
	<rect x="316.113" y="59.266" clip-path="url(#SVGID_14_)" fill="#B7C9DF" width="12.645" height="157.23"/>
	<rect x="328.758" y="59.266" clip-path="url(#SVGID_14_)" fill="#BECDE2" width="12.641" height="157.23"/>
	<rect x="341.398" y="59.266" clip-path="url(#SVGID_14_)" fill="#C5D2E5" width="12.645" height="157.23"/>
	<rect x="354.047" y="59.266" clip-path="url(#SVGID_14_)" fill="#CCD8E8" width="12.648" height="157.23"/>
	<rect x="366.695" y="59.266" clip-path="url(#SVGID_14_)" fill="#D3DCEB" width="12.637" height="157.23"/>
	<rect x="379.332" y="59.266" clip-path="url(#SVGID_14_)" fill="#DAE2EE" width="12.645" height="157.23"/>
	<rect x="391.977" y="59.266" clip-path="url(#SVGID_14_)" fill="#E2E7F1" width="12.645" height="157.23"/>
	<rect x="404.629" y="59.266" clip-path="url(#SVGID_14_)" fill="#EAEEF5" width="12.645" height="157.23"/>
	<rect x="417.27" y="59.266" clip-path="url(#SVGID_14_)" fill="#F3F4F9" width="12.645" height="157.23"/>
	<rect x="429.914" y="59.266" clip-path="url(#SVGID_14_)" fill="#FFFFFF" width="12.645" height="157.23"/>
</g>
<g>
	<g>
		<g>
			<path fill="#231F20" d="M527.699,210.711c0,16.598,13.59,30.066,30.367,30.066c16.77,0,30.371-13.469,30.371-30.066
				c0-16.613-13.602-30.074-30.371-30.074C541.289,180.637,527.699,194.098,527.699,210.711"/>
			<path fill="#FFFFFF" d="M449.086,136.93V89.508c0,0,1.559-1.156,7.293,0.75l22.152,46.691L449.086,136.93"/>
			<path fill="#00578E" d="M597.773,200.43c0,0,3.734-1.121,3.918,0.379c0.18,1.484,1.488,8.375-0.75,8.754
				c-2.234,0.375-4.656,0.742-5.773,0.375C594.051,209.562,595.352,200.988,597.773,200.43"/>
			<path fill="#231F20" d="M471.621,210.566c0,3.27-2.648,5.91-5.902,5.91h-31.496c-3.262,0-5.906-2.641-5.906-5.91
				c0-3.25,2.645-5.898,5.906-5.898h31.496C468.973,204.668,471.621,207.316,471.621,210.566z"/>
			<path fill="none" stroke="#231F20" stroke-width="1.5149" stroke-miterlimit="10" d="M471.621,210.566
				c0,3.27-2.648,5.91-5.902,5.91h-31.496c-3.262,0-5.906-2.641-5.906-5.91c0-3.25,2.645-5.898,5.906-5.898h31.496
				C468.973,204.668,471.621,207.316,471.621,210.566z"/>
			<path fill="#FFFFFF" d="M490.375,97.277c18.387,13.168,18.387,26.887,14.465,39.273l22.719,0.094c0,0-3.598-29.57-36.395-42.805
				C490.812,95.141,490.375,97.277,490.375,97.277"/>
		</g>
	</g>
</g>
<g>
	<defs>
		<polyline id="SVGID_15_" points="8.461,108.527 8.461,114.91 426.039,113.32 426.039,111.727 8.461,108.527 		"/>
	</defs>
	<clipPath id="SVGID_16_">
		<use xlink:href="#SVGID_15_"  overflow="visible"/>
	</clipPath>
	<rect x="2.762" y="102.293" clip-path="url(#SVGID_16_)" fill="#FFFFFF" width="56.109" height="18.852"/>
	<rect x="58.871" y="102.293" clip-path="url(#SVGID_16_)" fill="#FFFFFF" width="12.293" height="18.852"/>
	<rect x="71.164" y="102.293" clip-path="url(#SVGID_16_)" fill="#EEF1F7" width="12.289" height="18.852"/>
	<rect x="83.453" y="102.293" clip-path="url(#SVGID_16_)" fill="#E2E7F1" width="12.301" height="18.852"/>
	<rect x="95.758" y="102.293" clip-path="url(#SVGID_16_)" fill="#D7E0ED" width="12.293" height="18.852"/>
	<rect x="108.051" y="102.293" clip-path="url(#SVGID_16_)" fill="#CDD8E8" width="12.293" height="18.852"/>
	<rect x="120.344" y="102.293" clip-path="url(#SVGID_16_)" fill="#C2D0E4" width="12.297" height="18.852"/>
	<rect x="132.641" y="102.293" clip-path="url(#SVGID_16_)" fill="#B8C9E0" width="12.293" height="18.852"/>
	<rect x="144.938" y="102.293" clip-path="url(#SVGID_16_)" fill="#AEC2DB" width="12.293" height="18.852"/>
	<rect x="157.23" y="102.293" clip-path="url(#SVGID_16_)" fill="#A5BCD7" width="12.297" height="18.852"/>
	<rect x="169.527" y="102.293" clip-path="url(#SVGID_16_)" fill="#9BB5D3" width="12.293" height="18.852"/>
	<rect x="181.82" y="102.293" clip-path="url(#SVGID_16_)" fill="#92AFCF" width="12.293" height="18.852"/>
	<rect x="194.113" y="102.293" clip-path="url(#SVGID_16_)" fill="#89A8CB" width="12.297" height="18.852"/>
	<rect x="206.418" y="102.293" clip-path="url(#SVGID_16_)" fill="#80A2C7" width="12.293" height="18.852"/>
	<rect x="218.711" y="102.293" clip-path="url(#SVGID_16_)" fill="#789DC4" width="12.289" height="18.852"/>
	<rect x="231" y="102.293" clip-path="url(#SVGID_16_)" fill="#6F98C0" width="12.301" height="18.852"/>
	<rect x="243.301" y="102.293" clip-path="url(#SVGID_16_)" fill="#6692BC" width="12.289" height="18.852"/>
	<rect x="255.598" y="102.293" clip-path="url(#SVGID_16_)" fill="#5E8DB8" width="12.293" height="18.852"/>
	<rect x="267.891" y="102.293" clip-path="url(#SVGID_16_)" fill="#5689B5" width="12.297" height="18.852"/>
	<rect x="280.188" y="102.293" clip-path="url(#SVGID_16_)" fill="#4D84B1" width="12.293" height="18.852"/>
	<rect x="292.48" y="102.293" clip-path="url(#SVGID_16_)" fill="#447FAE" width="12.289" height="18.852"/>
	<rect x="304.77" y="102.293" clip-path="url(#SVGID_16_)" fill="#3A7AAA" width="12.301" height="18.852"/>
	<rect x="317.074" y="102.293" clip-path="url(#SVGID_16_)" fill="#2F76A7" width="12.293" height="18.852"/>
	<rect x="329.367" y="102.293" clip-path="url(#SVGID_16_)" fill="#2372A4" width="12.293" height="18.852"/>
	<rect x="341.66" y="102.293" clip-path="url(#SVGID_16_)" fill="#126DA0" width="12.297" height="18.852"/>
	<rect x="353.957" y="102.293" clip-path="url(#SVGID_16_)" fill="#00699D" width="12.293" height="18.852"/>
	<rect x="366.254" y="102.293" clip-path="url(#SVGID_16_)" fill="#00659A" width="12.293" height="18.852"/>
	<rect x="378.547" y="102.293" clip-path="url(#SVGID_16_)" fill="#006297" width="12.297" height="18.852"/>
	<rect x="390.844" y="102.293" clip-path="url(#SVGID_16_)" fill="#005E94" width="12.293" height="18.852"/>
	<rect x="403.137" y="102.293" clip-path="url(#SVGID_16_)" fill="#005A91" width="12.293" height="18.852"/>
	<rect x="415.43" y="102.293" clip-path="url(#SVGID_16_)" fill="#00578E" width="12.297" height="18.852"/>
</g>
<g>
	<defs>
		<polyline id="SVGID_17_" points="8.461,123.688 8.461,130.062 426.039,128.469 426.039,126.871 8.461,123.688 		"/>
	</defs>
	<clipPath id="SVGID_18_">
		<use xlink:href="#SVGID_17_"  overflow="visible"/>
	</clipPath>
	<rect x="2.762" y="117.453" clip-path="url(#SVGID_18_)" fill="#FFFFFF" width="56.109" height="18.844"/>
	<rect x="58.871" y="117.453" clip-path="url(#SVGID_18_)" fill="#FFFFFF" width="12.293" height="18.844"/>
	<rect x="71.164" y="117.453" clip-path="url(#SVGID_18_)" fill="#EEF1F7" width="12.289" height="18.844"/>
	<rect x="83.453" y="117.453" clip-path="url(#SVGID_18_)" fill="#E2E7F1" width="12.301" height="18.844"/>
	<rect x="95.758" y="117.453" clip-path="url(#SVGID_18_)" fill="#D7E0ED" width="12.293" height="18.844"/>
	<rect x="108.051" y="117.453" clip-path="url(#SVGID_18_)" fill="#CDD8E8" width="12.293" height="18.844"/>
	<rect x="120.344" y="117.453" clip-path="url(#SVGID_18_)" fill="#C2D0E4" width="12.297" height="18.844"/>
	<rect x="132.641" y="117.453" clip-path="url(#SVGID_18_)" fill="#B8C9E0" width="12.293" height="18.844"/>
	<rect x="144.938" y="117.453" clip-path="url(#SVGID_18_)" fill="#AEC2DB" width="12.293" height="18.844"/>
	<rect x="157.23" y="117.453" clip-path="url(#SVGID_18_)" fill="#A5BCD7" width="12.297" height="18.844"/>
	<rect x="169.527" y="117.453" clip-path="url(#SVGID_18_)" fill="#9BB5D3" width="12.293" height="18.844"/>
	<rect x="181.82" y="117.453" clip-path="url(#SVGID_18_)" fill="#92AFCF" width="12.293" height="18.844"/>
	<rect x="194.113" y="117.453" clip-path="url(#SVGID_18_)" fill="#89A8CB" width="12.297" height="18.844"/>
	<rect x="206.418" y="117.453" clip-path="url(#SVGID_18_)" fill="#80A2C7" width="12.293" height="18.844"/>
	<rect x="218.711" y="117.453" clip-path="url(#SVGID_18_)" fill="#789DC4" width="12.289" height="18.844"/>
	<rect x="231" y="117.453" clip-path="url(#SVGID_18_)" fill="#6F98C0" width="12.301" height="18.844"/>
	<rect x="243.301" y="117.453" clip-path="url(#SVGID_18_)" fill="#6692BC" width="12.289" height="18.844"/>
	<rect x="255.598" y="117.453" clip-path="url(#SVGID_18_)" fill="#5E8DB8" width="12.293" height="18.844"/>
	<rect x="267.891" y="117.453" clip-path="url(#SVGID_18_)" fill="#5689B5" width="12.297" height="18.844"/>
	<rect x="280.188" y="117.453" clip-path="url(#SVGID_18_)" fill="#4D84B1" width="12.293" height="18.844"/>
	<rect x="292.48" y="117.453" clip-path="url(#SVGID_18_)" fill="#447FAE" width="12.289" height="18.844"/>
	<rect x="304.77" y="117.453" clip-path="url(#SVGID_18_)" fill="#3A7AAA" width="12.301" height="18.844"/>
	<rect x="317.074" y="117.453" clip-path="url(#SVGID_18_)" fill="#2F76A7" width="12.293" height="18.844"/>
	<rect x="329.367" y="117.453" clip-path="url(#SVGID_18_)" fill="#2372A4" width="12.293" height="18.844"/>
	<rect x="341.66" y="117.453" clip-path="url(#SVGID_18_)" fill="#126DA0" width="12.297" height="18.844"/>
	<rect x="353.957" y="117.453" clip-path="url(#SVGID_18_)" fill="#00699D" width="12.293" height="18.844"/>
	<rect x="366.254" y="117.453" clip-path="url(#SVGID_18_)" fill="#00659A" width="12.293" height="18.844"/>
	<rect x="378.547" y="117.453" clip-path="url(#SVGID_18_)" fill="#006297" width="12.297" height="18.844"/>
	<rect x="390.844" y="117.453" clip-path="url(#SVGID_18_)" fill="#005E94" width="12.293" height="18.844"/>
	<rect x="403.137" y="117.453" clip-path="url(#SVGID_18_)" fill="#005A91" width="12.293" height="18.844"/>
	<rect x="415.43" y="117.453" clip-path="url(#SVGID_18_)" fill="#00578E" width="12.297" height="18.844"/>
</g>
<g>
	<defs>
		<polyline id="SVGID_19_" points="8.387,138.836 8.387,145.223 426.039,143.621 426.039,142.027 8.387,138.836 		"/>
	</defs>
	<clipPath id="SVGID_20_">
		<use xlink:href="#SVGID_19_"  overflow="visible"/>
	</clipPath>
	<rect x="2.758" y="132.609" clip-path="url(#SVGID_20_)" fill="#FFFFFF" width="56.105" height="18.848"/>
	<rect x="58.871" y="132.609" clip-path="url(#SVGID_20_)" fill="#FFFFFF" width="12.293" height="18.848"/>
	<rect x="71.164" y="132.609" clip-path="url(#SVGID_20_)" fill="#EEF1F7" width="12.289" height="18.848"/>
	<rect x="83.453" y="132.609" clip-path="url(#SVGID_20_)" fill="#E2E7F1" width="12.301" height="18.848"/>
	<rect x="95.758" y="132.609" clip-path="url(#SVGID_20_)" fill="#D7E0ED" width="12.293" height="18.848"/>
	<rect x="108.051" y="132.609" clip-path="url(#SVGID_20_)" fill="#CDD8E8" width="12.293" height="18.848"/>
	<rect x="120.344" y="132.609" clip-path="url(#SVGID_20_)" fill="#C2D0E4" width="12.297" height="18.848"/>
	<rect x="132.641" y="132.609" clip-path="url(#SVGID_20_)" fill="#B8C9E0" width="12.293" height="18.848"/>
	<rect x="144.938" y="132.609" clip-path="url(#SVGID_20_)" fill="#AEC2DB" width="12.293" height="18.848"/>
	<rect x="157.23" y="132.609" clip-path="url(#SVGID_20_)" fill="#A5BCD7" width="12.297" height="18.848"/>
	<rect x="169.527" y="132.609" clip-path="url(#SVGID_20_)" fill="#9BB5D3" width="12.293" height="18.848"/>
	<rect x="181.82" y="132.609" clip-path="url(#SVGID_20_)" fill="#92AFCF" width="12.293" height="18.848"/>
	<rect x="194.113" y="132.609" clip-path="url(#SVGID_20_)" fill="#89A8CB" width="12.297" height="18.848"/>
	<rect x="206.418" y="132.609" clip-path="url(#SVGID_20_)" fill="#80A2C7" width="12.293" height="18.848"/>
	<rect x="218.711" y="132.609" clip-path="url(#SVGID_20_)" fill="#789DC4" width="12.289" height="18.848"/>
	<rect x="231" y="132.609" clip-path="url(#SVGID_20_)" fill="#6F98C0" width="12.301" height="18.848"/>
	<rect x="243.301" y="132.609" clip-path="url(#SVGID_20_)" fill="#6692BC" width="12.289" height="18.848"/>
	<rect x="255.598" y="132.609" clip-path="url(#SVGID_20_)" fill="#5E8DB8" width="12.293" height="18.848"/>
	<rect x="267.891" y="132.609" clip-path="url(#SVGID_20_)" fill="#5689B5" width="12.297" height="18.848"/>
	<rect x="280.188" y="132.609" clip-path="url(#SVGID_20_)" fill="#4D84B1" width="12.293" height="18.848"/>
	<rect x="292.48" y="132.609" clip-path="url(#SVGID_20_)" fill="#447FAE" width="12.289" height="18.848"/>
	<rect x="304.77" y="132.609" clip-path="url(#SVGID_20_)" fill="#3A7AAA" width="12.301" height="18.848"/>
	<rect x="317.074" y="132.609" clip-path="url(#SVGID_20_)" fill="#2F76A7" width="12.293" height="18.848"/>
	<rect x="329.367" y="132.609" clip-path="url(#SVGID_20_)" fill="#2372A4" width="12.293" height="18.848"/>
	<rect x="341.66" y="132.609" clip-path="url(#SVGID_20_)" fill="#126DA0" width="12.297" height="18.848"/>
	<rect x="353.957" y="132.609" clip-path="url(#SVGID_20_)" fill="#00699D" width="12.293" height="18.848"/>
	<rect x="366.254" y="132.609" clip-path="url(#SVGID_20_)" fill="#00659A" width="12.293" height="18.848"/>
	<rect x="378.547" y="132.609" clip-path="url(#SVGID_20_)" fill="#006297" width="12.297" height="18.848"/>
	<rect x="390.844" y="132.609" clip-path="url(#SVGID_20_)" fill="#005E94" width="12.293" height="18.848"/>
	<rect x="403.137" y="132.609" clip-path="url(#SVGID_20_)" fill="#005A91" width="12.293" height="18.848"/>
	<rect x="415.43" y="132.609" clip-path="url(#SVGID_20_)" fill="#00578E" width="12.297" height="18.848"/>
</g>
<g>
	<defs>
		<polyline id="SVGID_21_" points="8.461,153.988 8.461,160.375 426.039,158.773 426.039,157.184 8.461,153.988 		"/>
	</defs>
	<clipPath id="SVGID_22_">
		<use xlink:href="#SVGID_21_"  overflow="visible"/>
	</clipPath>
	<rect x="2.762" y="147.754" clip-path="url(#SVGID_22_)" fill="#FFFFFF" width="56.109" height="18.855"/>
	<rect x="58.871" y="147.754" clip-path="url(#SVGID_22_)" fill="#FFFFFF" width="12.293" height="18.855"/>
	<rect x="71.164" y="147.754" clip-path="url(#SVGID_22_)" fill="#EEF1F7" width="12.289" height="18.855"/>
	<rect x="83.453" y="147.754" clip-path="url(#SVGID_22_)" fill="#E2E7F1" width="12.301" height="18.855"/>
	<rect x="95.758" y="147.754" clip-path="url(#SVGID_22_)" fill="#D7E0ED" width="12.293" height="18.855"/>
	<rect x="108.051" y="147.754" clip-path="url(#SVGID_22_)" fill="#CDD8E8" width="12.293" height="18.855"/>
	<rect x="120.344" y="147.754" clip-path="url(#SVGID_22_)" fill="#C2D0E4" width="12.297" height="18.855"/>
	<rect x="132.641" y="147.754" clip-path="url(#SVGID_22_)" fill="#B8C9E0" width="12.293" height="18.855"/>
	<rect x="144.938" y="147.754" clip-path="url(#SVGID_22_)" fill="#AEC2DB" width="12.293" height="18.855"/>
	<rect x="157.23" y="147.754" clip-path="url(#SVGID_22_)" fill="#A5BCD7" width="12.297" height="18.855"/>
	<rect x="169.527" y="147.754" clip-path="url(#SVGID_22_)" fill="#9BB5D3" width="12.293" height="18.855"/>
	<rect x="181.82" y="147.754" clip-path="url(#SVGID_22_)" fill="#92AFCF" width="12.293" height="18.855"/>
	<rect x="194.113" y="147.754" clip-path="url(#SVGID_22_)" fill="#89A8CB" width="12.297" height="18.855"/>
	<rect x="206.418" y="147.754" clip-path="url(#SVGID_22_)" fill="#80A2C7" width="12.293" height="18.855"/>
	<rect x="218.711" y="147.754" clip-path="url(#SVGID_22_)" fill="#789DC4" width="12.289" height="18.855"/>
	<rect x="231" y="147.754" clip-path="url(#SVGID_22_)" fill="#6F98C0" width="12.301" height="18.855"/>
	<rect x="243.301" y="147.754" clip-path="url(#SVGID_22_)" fill="#6692BC" width="12.289" height="18.855"/>
	<rect x="255.598" y="147.754" clip-path="url(#SVGID_22_)" fill="#5E8DB8" width="12.293" height="18.855"/>
	<rect x="267.891" y="147.754" clip-path="url(#SVGID_22_)" fill="#5689B5" width="12.297" height="18.855"/>
	<rect x="280.188" y="147.754" clip-path="url(#SVGID_22_)" fill="#4D84B1" width="12.293" height="18.855"/>
	<rect x="292.48" y="147.754" clip-path="url(#SVGID_22_)" fill="#447FAE" width="12.289" height="18.855"/>
	<rect x="304.77" y="147.754" clip-path="url(#SVGID_22_)" fill="#3A7AAA" width="12.301" height="18.855"/>
	<rect x="317.074" y="147.754" clip-path="url(#SVGID_22_)" fill="#2F76A7" width="12.293" height="18.855"/>
	<rect x="329.367" y="147.754" clip-path="url(#SVGID_22_)" fill="#2372A4" width="12.293" height="18.855"/>
	<rect x="341.66" y="147.754" clip-path="url(#SVGID_22_)" fill="#126DA0" width="12.297" height="18.855"/>
	<rect x="353.957" y="147.754" clip-path="url(#SVGID_22_)" fill="#00699D" width="12.293" height="18.855"/>
	<rect x="366.254" y="147.754" clip-path="url(#SVGID_22_)" fill="#00659A" width="12.293" height="18.855"/>
	<rect x="378.547" y="147.754" clip-path="url(#SVGID_22_)" fill="#006297" width="12.297" height="18.855"/>
	<rect x="390.844" y="147.754" clip-path="url(#SVGID_22_)" fill="#005E94" width="12.293" height="18.855"/>
	<rect x="403.137" y="147.754" clip-path="url(#SVGID_22_)" fill="#005A91" width="12.293" height="18.855"/>
	<rect x="415.43" y="147.754" clip-path="url(#SVGID_22_)" fill="#00578E" width="12.297" height="18.855"/>
</g>
<g>
	<g>
		<g>
			<path fill="none" stroke="#231F20" stroke-width="1.1845" d="M428.535,172.219"/>
		</g>
	</g>
</g>
<g>
	<defs>
		<polyline id="SVGID_23_" points="8.461,169.148 8.461,175.523 426.039,173.926 426.039,172.332 8.461,169.148 		"/>
	</defs>
	<clipPath id="SVGID_24_">
		<use xlink:href="#SVGID_23_"  overflow="visible"/>
	</clipPath>
	<rect x="2.762" y="162.914" clip-path="url(#SVGID_24_)" fill="#FFFFFF" width="56.109" height="18.844"/>
	<rect x="58.871" y="162.914" clip-path="url(#SVGID_24_)" fill="#FFFFFF" width="12.293" height="18.844"/>
	<rect x="71.164" y="162.914" clip-path="url(#SVGID_24_)" fill="#EEF1F7" width="12.289" height="18.844"/>
	<rect x="83.453" y="162.914" clip-path="url(#SVGID_24_)" fill="#E2E7F1" width="12.301" height="18.844"/>
	<rect x="95.758" y="162.914" clip-path="url(#SVGID_24_)" fill="#D7E0ED" width="12.293" height="18.844"/>
	<rect x="108.051" y="162.914" clip-path="url(#SVGID_24_)" fill="#CDD8E8" width="12.293" height="18.844"/>
	<rect x="120.344" y="162.914" clip-path="url(#SVGID_24_)" fill="#C2D0E4" width="12.297" height="18.844"/>
	<rect x="132.641" y="162.914" clip-path="url(#SVGID_24_)" fill="#B8C9E0" width="12.293" height="18.844"/>
	<rect x="144.938" y="162.914" clip-path="url(#SVGID_24_)" fill="#AEC2DB" width="12.293" height="18.844"/>
	<rect x="157.23" y="162.914" clip-path="url(#SVGID_24_)" fill="#A5BCD7" width="12.297" height="18.844"/>
	<rect x="169.527" y="162.914" clip-path="url(#SVGID_24_)" fill="#9BB5D3" width="12.293" height="18.844"/>
	<rect x="181.82" y="162.914" clip-path="url(#SVGID_24_)" fill="#92AFCF" width="12.293" height="18.844"/>
	<rect x="194.113" y="162.914" clip-path="url(#SVGID_24_)" fill="#89A8CB" width="12.297" height="18.844"/>
	<rect x="206.418" y="162.914" clip-path="url(#SVGID_24_)" fill="#80A2C7" width="12.293" height="18.844"/>
	<rect x="218.711" y="162.914" clip-path="url(#SVGID_24_)" fill="#789DC4" width="12.289" height="18.844"/>
	<rect x="231" y="162.914" clip-path="url(#SVGID_24_)" fill="#6F98C0" width="12.301" height="18.844"/>
	<rect x="243.301" y="162.914" clip-path="url(#SVGID_24_)" fill="#6692BC" width="12.289" height="18.844"/>
	<rect x="255.598" y="162.914" clip-path="url(#SVGID_24_)" fill="#5E8DB8" width="12.293" height="18.844"/>
	<rect x="267.891" y="162.914" clip-path="url(#SVGID_24_)" fill="#5689B5" width="12.297" height="18.844"/>
	<rect x="280.188" y="162.914" clip-path="url(#SVGID_24_)" fill="#4D84B1" width="12.293" height="18.844"/>
	<rect x="292.48" y="162.914" clip-path="url(#SVGID_24_)" fill="#447FAE" width="12.289" height="18.844"/>
	<rect x="304.77" y="162.914" clip-path="url(#SVGID_24_)" fill="#3A7AAA" width="12.301" height="18.844"/>
	<rect x="317.074" y="162.914" clip-path="url(#SVGID_24_)" fill="#2F76A7" width="12.293" height="18.844"/>
	<rect x="329.367" y="162.914" clip-path="url(#SVGID_24_)" fill="#2372A4" width="12.293" height="18.844"/>
	<rect x="341.66" y="162.914" clip-path="url(#SVGID_24_)" fill="#126DA0" width="12.297" height="18.844"/>
	<rect x="353.957" y="162.914" clip-path="url(#SVGID_24_)" fill="#00699D" width="12.293" height="18.844"/>
	<rect x="366.254" y="162.914" clip-path="url(#SVGID_24_)" fill="#00659A" width="12.293" height="18.844"/>
	<rect x="378.547" y="162.914" clip-path="url(#SVGID_24_)" fill="#006297" width="12.297" height="18.844"/>
	<rect x="390.844" y="162.914" clip-path="url(#SVGID_24_)" fill="#005E94" width="12.293" height="18.844"/>
	<rect x="403.137" y="162.914" clip-path="url(#SVGID_24_)" fill="#005A91" width="12.293" height="18.844"/>
	<rect x="415.43" y="162.914" clip-path="url(#SVGID_24_)" fill="#00578E" width="12.297" height="18.844"/>
</g>
<g>
	<defs>
		<polyline id="SVGID_25_" points="8.461,93.375 8.461,99.762 426.039,98.16 426.039,96.566 8.461,93.375 		"/>
	</defs>
	<clipPath id="SVGID_26_">
		<use xlink:href="#SVGID_25_"  overflow="visible"/>
	</clipPath>
	<rect x="2.762" y="87.148" clip-path="url(#SVGID_26_)" fill="#FFFFFF" width="56.109" height="18.848"/>
	<rect x="58.871" y="87.148" clip-path="url(#SVGID_26_)" fill="#FFFFFF" width="12.293" height="18.848"/>
	<rect x="71.164" y="87.148" clip-path="url(#SVGID_26_)" fill="#EEF1F7" width="12.289" height="18.848"/>
	<rect x="83.453" y="87.148" clip-path="url(#SVGID_26_)" fill="#E2E7F1" width="12.301" height="18.848"/>
	<rect x="95.758" y="87.148" clip-path="url(#SVGID_26_)" fill="#D7E0ED" width="12.293" height="18.848"/>
	<rect x="108.051" y="87.148" clip-path="url(#SVGID_26_)" fill="#CDD8E8" width="12.293" height="18.848"/>
	<rect x="120.344" y="87.148" clip-path="url(#SVGID_26_)" fill="#C2D0E4" width="12.297" height="18.848"/>
	<rect x="132.641" y="87.148" clip-path="url(#SVGID_26_)" fill="#B8C9E0" width="12.293" height="18.848"/>
	<rect x="144.938" y="87.148" clip-path="url(#SVGID_26_)" fill="#AEC2DB" width="12.293" height="18.848"/>
	<rect x="157.23" y="87.148" clip-path="url(#SVGID_26_)" fill="#A5BCD7" width="12.297" height="18.848"/>
	<rect x="169.527" y="87.148" clip-path="url(#SVGID_26_)" fill="#9BB5D3" width="12.293" height="18.848"/>
	<rect x="181.82" y="87.148" clip-path="url(#SVGID_26_)" fill="#92AFCF" width="12.293" height="18.848"/>
	<rect x="194.113" y="87.148" clip-path="url(#SVGID_26_)" fill="#89A8CB" width="12.297" height="18.848"/>
	<rect x="206.418" y="87.148" clip-path="url(#SVGID_26_)" fill="#80A2C7" width="12.293" height="18.848"/>
	<rect x="218.711" y="87.148" clip-path="url(#SVGID_26_)" fill="#789DC4" width="12.289" height="18.848"/>
	<rect x="231" y="87.148" clip-path="url(#SVGID_26_)" fill="#6F98C0" width="12.301" height="18.848"/>
	<rect x="243.301" y="87.148" clip-path="url(#SVGID_26_)" fill="#6692BC" width="12.289" height="18.848"/>
	<rect x="255.598" y="87.148" clip-path="url(#SVGID_26_)" fill="#5E8DB8" width="12.293" height="18.848"/>
	<rect x="267.891" y="87.148" clip-path="url(#SVGID_26_)" fill="#5689B5" width="12.297" height="18.848"/>
	<rect x="280.188" y="87.148" clip-path="url(#SVGID_26_)" fill="#4D84B1" width="12.293" height="18.848"/>
	<rect x="292.48" y="87.148" clip-path="url(#SVGID_26_)" fill="#447FAE" width="12.289" height="18.848"/>
	<rect x="304.77" y="87.148" clip-path="url(#SVGID_26_)" fill="#3A7AAA" width="12.301" height="18.848"/>
	<rect x="317.074" y="87.148" clip-path="url(#SVGID_26_)" fill="#2F76A7" width="12.293" height="18.848"/>
	<rect x="329.367" y="87.148" clip-path="url(#SVGID_26_)" fill="#2372A4" width="12.293" height="18.848"/>
	<rect x="341.66" y="87.148" clip-path="url(#SVGID_26_)" fill="#126DA0" width="12.297" height="18.848"/>
	<rect x="353.957" y="87.148" clip-path="url(#SVGID_26_)" fill="#00699D" width="12.293" height="18.848"/>
	<rect x="366.254" y="87.148" clip-path="url(#SVGID_26_)" fill="#00659A" width="12.293" height="18.848"/>
	<rect x="378.547" y="87.148" clip-path="url(#SVGID_26_)" fill="#006297" width="12.297" height="18.848"/>
	<rect x="390.844" y="87.148" clip-path="url(#SVGID_26_)" fill="#005E94" width="12.293" height="18.848"/>
	<rect x="403.137" y="87.148" clip-path="url(#SVGID_26_)" fill="#005A91" width="12.293" height="18.848"/>
	<rect x="415.43" y="87.148" clip-path="url(#SVGID_26_)" fill="#00578E" width="12.297" height="18.848"/>
</g>
<g>
	<g>
		<g>
			<path fill="#FFFFFF" d="M524.688,202.105L524.688,202.105c0,0.004,0,0.016,0,0.023
				C524.688,202.121,524.688,202.109,524.688,202.105 M446.441,184.508v1.598c0,0,67.141,0,71.848,0
				c-3.422,3.141-6.277,9.672-6.363,15.195c-1.527,0-38.75,0-38.75,0v1.602h52.297c0.227,0,0.434-0.098,0.578-0.246
				c0.152-0.164,0.23-0.371,0.227-0.59c-0.223-6.016,3.766-14.402,7.598-16.023c0.352-0.152,0.539-0.516,0.469-0.895
				c-0.074-0.371-0.402-0.641-0.781-0.641H446.441z"/>
		</g>
	</g>
</g>
<g>
	<defs>
		<polyline id="SVGID_27_" points="8.418,78.227 8.418,86.199 426.039,83.008 426.039,81.414 8.418,78.227 		"/>
	</defs>
	<clipPath id="SVGID_28_">
		<use xlink:href="#SVGID_27_"  overflow="visible"/>
	</clipPath>
	<rect x="2.762" y="71.992" clip-path="url(#SVGID_28_)" fill="#FFFFFF" width="56.109" height="20.441"/>
	<rect x="58.871" y="71.992" clip-path="url(#SVGID_28_)" fill="#FFFFFF" width="12.293" height="20.441"/>
	<rect x="71.164" y="71.992" clip-path="url(#SVGID_28_)" fill="#EEF1F7" width="12.289" height="20.441"/>
	<rect x="83.453" y="71.992" clip-path="url(#SVGID_28_)" fill="#E2E7F1" width="12.301" height="20.441"/>
	<rect x="95.758" y="71.992" clip-path="url(#SVGID_28_)" fill="#D7E0ED" width="12.293" height="20.441"/>
	<rect x="108.051" y="71.992" clip-path="url(#SVGID_28_)" fill="#CDD8E8" width="12.293" height="20.441"/>
	<rect x="120.344" y="71.992" clip-path="url(#SVGID_28_)" fill="#C2D0E4" width="12.297" height="20.441"/>
	<rect x="132.641" y="71.992" clip-path="url(#SVGID_28_)" fill="#B8C9E0" width="12.293" height="20.441"/>
	<rect x="144.938" y="71.992" clip-path="url(#SVGID_28_)" fill="#AEC2DB" width="12.293" height="20.441"/>
	<rect x="157.23" y="71.992" clip-path="url(#SVGID_28_)" fill="#A5BCD7" width="12.297" height="20.441"/>
	<rect x="169.527" y="71.992" clip-path="url(#SVGID_28_)" fill="#9BB5D3" width="12.293" height="20.441"/>
	<rect x="181.82" y="71.992" clip-path="url(#SVGID_28_)" fill="#92AFCF" width="12.293" height="20.441"/>
	<rect x="194.113" y="71.992" clip-path="url(#SVGID_28_)" fill="#89A8CB" width="12.297" height="20.441"/>
	<rect x="206.418" y="71.992" clip-path="url(#SVGID_28_)" fill="#80A2C7" width="12.293" height="20.441"/>
	<rect x="218.711" y="71.992" clip-path="url(#SVGID_28_)" fill="#789DC4" width="12.289" height="20.441"/>
	<rect x="231" y="71.992" clip-path="url(#SVGID_28_)" fill="#6F98C0" width="12.301" height="20.441"/>
	<rect x="243.301" y="71.992" clip-path="url(#SVGID_28_)" fill="#6692BC" width="12.289" height="20.441"/>
	<rect x="255.598" y="71.992" clip-path="url(#SVGID_28_)" fill="#5E8DB8" width="12.293" height="20.441"/>
	<rect x="267.891" y="71.992" clip-path="url(#SVGID_28_)" fill="#5689B5" width="12.297" height="20.441"/>
	<rect x="280.188" y="71.992" clip-path="url(#SVGID_28_)" fill="#4D84B1" width="12.293" height="20.441"/>
	<rect x="292.48" y="71.992" clip-path="url(#SVGID_28_)" fill="#447FAE" width="12.289" height="20.441"/>
	<rect x="304.77" y="71.992" clip-path="url(#SVGID_28_)" fill="#3A7AAA" width="12.301" height="20.441"/>
	<rect x="317.074" y="71.992" clip-path="url(#SVGID_28_)" fill="#2F76A7" width="12.293" height="20.441"/>
	<rect x="329.367" y="71.992" clip-path="url(#SVGID_28_)" fill="#2372A4" width="12.293" height="20.441"/>
	<rect x="341.66" y="71.992" clip-path="url(#SVGID_28_)" fill="#126DA0" width="12.297" height="20.441"/>
	<rect x="353.957" y="71.992" clip-path="url(#SVGID_28_)" fill="#00699D" width="12.293" height="20.441"/>
	<rect x="366.254" y="71.992" clip-path="url(#SVGID_28_)" fill="#00659A" width="12.293" height="20.441"/>
	<rect x="378.547" y="71.992" clip-path="url(#SVGID_28_)" fill="#006297" width="12.297" height="20.441"/>
	<rect x="390.844" y="71.992" clip-path="url(#SVGID_28_)" fill="#005E94" width="12.293" height="20.441"/>
	<rect x="403.137" y="71.992" clip-path="url(#SVGID_28_)" fill="#005A91" width="12.293" height="20.441"/>
	<rect x="415.43" y="71.992" clip-path="url(#SVGID_28_)" fill="#00578E" width="12.297" height="20.441"/>
</g>
<g>
	<defs>
		<polyline id="SVGID_29_" points="8.492,184.297 8.492,190.684 426.039,189.082 426.039,187.484 8.492,184.297 		"/>
	</defs>
	<clipPath id="SVGID_30_">
		<use xlink:href="#SVGID_29_"  overflow="visible"/>
	</clipPath>
	<rect x="2.77" y="178.066" clip-path="url(#SVGID_30_)" fill="#FFFFFF" width="56.109" height="18.852"/>
	<rect x="58.871" y="178.066" clip-path="url(#SVGID_30_)" fill="#FFFFFF" width="12.293" height="18.852"/>
	<rect x="71.164" y="178.066" clip-path="url(#SVGID_30_)" fill="#EEF1F7" width="12.289" height="18.852"/>
	<rect x="83.453" y="178.066" clip-path="url(#SVGID_30_)" fill="#E2E7F1" width="12.301" height="18.852"/>
	<rect x="95.758" y="178.066" clip-path="url(#SVGID_30_)" fill="#D7E0ED" width="12.293" height="18.852"/>
	<rect x="108.051" y="178.066" clip-path="url(#SVGID_30_)" fill="#CDD8E8" width="12.293" height="18.852"/>
	<rect x="120.344" y="178.066" clip-path="url(#SVGID_30_)" fill="#C2D0E4" width="12.297" height="18.852"/>
	<rect x="132.641" y="178.066" clip-path="url(#SVGID_30_)" fill="#B8C9E0" width="12.293" height="18.852"/>
	<rect x="144.938" y="178.066" clip-path="url(#SVGID_30_)" fill="#AEC2DB" width="12.293" height="18.852"/>
	<rect x="157.23" y="178.066" clip-path="url(#SVGID_30_)" fill="#A5BCD7" width="12.297" height="18.852"/>
	<rect x="169.527" y="178.066" clip-path="url(#SVGID_30_)" fill="#9BB5D3" width="12.293" height="18.852"/>
	<rect x="181.82" y="178.066" clip-path="url(#SVGID_30_)" fill="#92AFCF" width="12.293" height="18.852"/>
	<rect x="194.113" y="178.066" clip-path="url(#SVGID_30_)" fill="#89A8CB" width="12.297" height="18.852"/>
	<rect x="206.418" y="178.066" clip-path="url(#SVGID_30_)" fill="#80A2C7" width="12.293" height="18.852"/>
	<rect x="218.711" y="178.066" clip-path="url(#SVGID_30_)" fill="#789DC4" width="12.289" height="18.852"/>
	<rect x="231" y="178.066" clip-path="url(#SVGID_30_)" fill="#6F98C0" width="12.301" height="18.852"/>
	<rect x="243.301" y="178.066" clip-path="url(#SVGID_30_)" fill="#6692BC" width="12.289" height="18.852"/>
	<rect x="255.598" y="178.066" clip-path="url(#SVGID_30_)" fill="#5E8DB8" width="12.293" height="18.852"/>
	<rect x="267.891" y="178.066" clip-path="url(#SVGID_30_)" fill="#5689B5" width="12.297" height="18.852"/>
	<rect x="280.188" y="178.066" clip-path="url(#SVGID_30_)" fill="#4D84B1" width="12.293" height="18.852"/>
	<rect x="292.48" y="178.066" clip-path="url(#SVGID_30_)" fill="#447FAE" width="12.289" height="18.852"/>
	<rect x="304.77" y="178.066" clip-path="url(#SVGID_30_)" fill="#3A7AAA" width="12.301" height="18.852"/>
	<rect x="317.074" y="178.066" clip-path="url(#SVGID_30_)" fill="#2F76A7" width="12.293" height="18.852"/>
	<rect x="329.367" y="178.066" clip-path="url(#SVGID_30_)" fill="#2372A4" width="12.293" height="18.852"/>
	<rect x="341.66" y="178.066" clip-path="url(#SVGID_30_)" fill="#126DA0" width="12.297" height="18.852"/>
	<rect x="353.957" y="178.066" clip-path="url(#SVGID_30_)" fill="#00699D" width="12.293" height="18.852"/>
	<rect x="366.254" y="178.066" clip-path="url(#SVGID_30_)" fill="#00659A" width="12.293" height="18.852"/>
	<rect x="378.547" y="178.066" clip-path="url(#SVGID_30_)" fill="#006297" width="12.297" height="18.852"/>
	<rect x="390.844" y="178.066" clip-path="url(#SVGID_30_)" fill="#005E94" width="12.293" height="18.852"/>
	<rect x="403.137" y="178.066" clip-path="url(#SVGID_30_)" fill="#005A91" width="12.293" height="18.852"/>
	<rect x="415.43" y="178.066" clip-path="url(#SVGID_30_)" fill="#00578E" width="12.297" height="18.852"/>
</g>
<g>
	<g>
		<g>
			<path fill="none" stroke="#FFFFFF" stroke-width="2.4937" d="M481.266,143.102v42.328 M535.27,207.289
				c0-2.184,0.352-4.285,1.008-6.25c2.617-7.859,10.035-13.527,18.77-13.527"/>
			<polyline fill="#FFFFFF" points="658.828,25.547 653.895,50.211 646.223,54.602 657.445,54.602 658.828,25.547 			"/>
			<polyline fill="#FFFFFF" points="601.891,25.547 596.953,50.211 589.289,54.602 600.516,54.602 601.891,25.547 			"/>
			<polyline fill="#FFFFFF" points="541.586,25.547 536.648,50.211 528.98,54.602 540.211,54.602 541.586,25.547 			"/>
			<polyline fill="#FFFFFF" points="480.906,25.547 475.977,50.211 468.305,54.602 479.523,54.602 480.906,25.547 			"/>
			<polyline fill="#FFFFFF" points="422.723,25.547 417.785,50.211 410.121,54.602 421.348,54.602 422.723,25.547 			"/>
			<polyline fill="#FFFFFF" points="367.441,25.547 362.516,50.211 354.84,54.602 366.059,54.602 367.441,25.547 			"/>
			<polyline fill="#FFFFFF" points="312.582,25.547 307.652,50.211 299.98,54.602 311.199,54.602 312.582,25.547 			"/>
			<polyline fill="#FFFFFF" points="250.238,25.547 245.309,50.211 237.637,54.602 248.859,54.602 250.238,25.547 			"/>
			<polyline fill="#231F20" points="169.207,265.133 169.207,281.656 189.625,281.656 189.625,288.359 169.207,288.359 
				169.207,317.195 161.883,317.195 161.883,258.43 190.332,258.43 190.332,265.133 169.207,265.133 			"/>
			<polyline fill="#231F20" points="257.582,278.383 257.422,278.383 250.566,317.195 243.012,317.195 255.012,255.941 
				275.188,302.23 295.379,255.941 307.375,317.195 299.816,317.195 292.961,278.383 292.801,278.383 275.188,318.438 
				257.582,278.383 			"/>
			<path fill="#231F20" d="M405.414,269.656c-4.207-3.742-9.977-5.77-15.512-5.77c-13.168,0-23.223,10.988-23.223,24.004
				c0,12.852,9.973,23.848,23.062,23.848c5.773,0,11.309-2.184,15.672-6.082v8.652c-4.523,2.648-10.289,4.129-15.434,4.129
				c-16.754,0-30.629-13.328-30.629-30.316c0-17.375,13.953-30.934,31.258-30.934c5.145,0,10.359,1.242,14.805,3.973V269.656"/>
			<path fill="#231F20" d="M488.949,269.574c-2.18-3.66-4.984-5.531-9.43-5.531c-4.676,0-9.82,3.191-9.82,8.336
				c0,4.602,4.523,7.012,8.188,8.422l4.207,1.637c8.336,3.27,14.57,7.863,14.57,17.684c0,10.68-8.262,18.316-18.777,18.316
				c-9.508,0-16.914-7.016-18.16-16.445l7.402-1.559c-0.078,6.473,5.066,11.148,11.379,11.148c6.309,0,10.832-5.297,10.832-11.461
				c0-6.305-5.066-9.039-10.133-11.141l-4.055-1.715c-6.703-2.887-12.777-6.699-12.777-14.887c0-9.504,8.414-15.191,17.301-15.191
				c6.547,0,11.93,3.191,15.117,8.883L488.949,269.574"/>
			<path fill="#231F20" d="M588.699,302.461l6.695,14.734h7.871l-28.055-61.254l-28.055,61.254h7.879l6.699-14.734H588.699
				 M585.66,295.758H564.77l10.441-23.762L585.66,295.758z"/>
			<polyline fill="#231F20" points="172.715,332.902 172.238,335.891 166.375,335.891 165.09,344.012 170.371,344.012 
				169.895,346.996 164.617,346.996 162.754,358.758 159.32,358.758 163.418,332.902 172.715,332.902 			"/>
			<path fill="#231F20" d="M181.371,350.734l0.086-0.512c0.566-3.57,0.883-9.055-3.812-9.055c-4.766,0-6.051,5.516-6.613,9.055
				c-0.582,3.664-0.949,8.809,3.879,8.809c3.637,0,5.512-2.918,6.016-6.105h-2.988c-0.215,1.34-0.816,3.227-2.535,3.227
				c-2.094,0-1.387-3.98-1.16-5.418H181.371 M174.605,348.438c0.207-1.332,0.555-4.391,2.582-4.391c1.953,0,1.469,3.059,1.254,4.391
				H174.605z"/>
			<path fill="#231F20" d="M189.121,358.758h3.227l4.504-28.461h-3.219l-2.07,13.062h-0.074c-0.445-1.301-1.09-2.191-2.734-2.191
				c-4.082,0-5.113,5.828-5.57,8.707c-0.438,2.812-1.375,9.156,2.633,9.156c1.82,0,2.703-0.992,3.59-2.504h0.062L189.121,358.758
				 M187.609,356.152c-2.398,0-1.387-4.629-1.16-6.07c0.223-1.406,0.68-6.035,3.086-6.035c2.156,0,1.285,4.664,1.066,6.035
				C190.383,351.457,189.777,356.152,187.609,356.152z"/>
			<path fill="#231F20" d="M199.098,350.734c-0.223,1.438-0.922,5.418,1.164,5.418c1.719,0,2.324-1.887,2.539-3.227h2.977
				c-0.504,3.188-2.367,6.105-6.004,6.105c-4.832,0-4.461-5.145-3.883-8.809c0.555-3.539,1.844-9.055,6.613-9.055
				c4.699,0,4.375,5.484,3.809,9.055l-0.086,0.512H199.098 M203.305,348.438c0.215-1.332,0.688-4.391-1.258-4.391
				c-2.027,0-2.371,3.059-2.582,4.391H203.305z"/>
			<path fill="#231F20" d="M212.785,343.566h0.062c0.996-1.508,2.27-2.398,4.055-2.398l-0.508,3.184l-0.539-0.027
				c-2.402,0-3.367,1.332-3.715,3.531l-1.73,10.902h-3.25l2.738-17.316h3.223L212.785,343.566"/>
			<path fill="#231F20" d="M222.93,358.758h3.227l2.73-17.316h-3.211l-0.305,1.918h-0.074c-0.379-1.27-1.223-2.191-2.734-2.191
				c-4.086,0-5.109,5.828-5.57,8.707c-0.438,2.812-1.375,9.156,2.637,9.156c1.852,0,2.695-0.992,3.578-2.504h0.074L222.93,358.758
				 M221.418,356.152c-2.398,0-1.395-4.629-1.164-6.07c0.227-1.406,0.684-6.035,3.082-6.035c2.16,0,1.285,4.664,1.07,6.035
				C224.188,351.457,223.578,356.152,221.418,356.152z"/>
			<polyline fill="#231F20" points="232.047,358.758 228.828,358.758 233.332,330.297 236.555,330.297 232.047,358.758 			"/>
			<polyline fill="#231F20" points="249.996,332.902 250.707,351.555 250.773,351.555 251.051,350.496 253.059,344.285 
				257.094,332.902 260.109,332.902 258.414,358.758 255.055,358.758 255.961,349.125 256.523,344.324 256.984,340.93 
				256.918,340.93 255.75,344.633 250.844,358.758 248.473,358.758 247.977,340.93 247.902,340.93 244.086,358.758 240.828,358.758 
				247.043,332.902 249.996,332.902 			"/>
			<path fill="#231F20" d="M265.367,359.031c4.938,0,6.285-5.242,6.855-8.875c0.598-3.777,0.914-8.988-4.023-8.988
				s-6.281,5.211-6.879,8.988C260.746,353.789,260.43,359.031,265.367,359.031 M265.832,356.078c-2.465,0-1.414-4.695-1.219-5.922
				c0.219-1.379,0.645-6.039,3.117-6.039c2.465,0,1.418,4.66,1.199,6.039C268.742,351.383,268.305,356.078,265.832,356.078z"/>
			<polyline fill="#231F20" points="280.449,336.535 279.676,341.441 281.387,341.441 280.984,343.98 279.27,343.98 276.93,358.758 
				273.711,358.758 276.047,343.98 274.301,343.98 274.703,341.441 276.449,341.441 277.223,336.535 280.449,336.535 			"/>
			<path fill="#231F20" d="M285.254,359.031c4.938,0,6.281-5.242,6.859-8.875c0.598-3.777,0.906-8.988-4.031-8.988
				s-6.277,5.211-6.871,8.988C280.633,353.789,280.316,359.031,285.254,359.031 M285.723,356.078c-2.469,0-1.414-4.695-1.227-5.922
				c0.219-1.379,0.652-6.039,3.117-6.039c2.473,0,1.426,4.66,1.207,6.039C288.625,351.383,288.191,356.078,285.723,356.078z"/>
			<path fill="#231F20" d="M298.566,343.566h0.074c1-1.508,2.266-2.398,4.047-2.398l-0.504,3.184l-0.543-0.027
				c-2.398,0-3.367,1.332-3.711,3.531l-1.73,10.902h-3.258l2.738-17.316h3.227L298.566,343.566"/>
			<path fill="#231F20" d="M322.781,336.438c-0.641-0.348-1.305-0.656-2.098-0.656c-4.801,0-5.941,6.996-6.453,10.223
				c-0.539,3.426-1.289,9.875,3.41,9.875c0.754,0,1.43-0.172,2.137-0.512l-0.48,3.012c-0.938,0.551-1.855,0.719-2.855,0.719
				c-6.996,0-6.738-7.438-5.879-12.855c0.82-5.176,2.812-13.684,9.848-13.684c1.164,0,1.957,0.172,2.863,0.758L322.781,336.438"/>
			<path fill="#231F20" d="M327.844,358.758h3.227l2.742-17.316h-3.223l-0.305,1.918h-0.07c-0.379-1.27-1.227-2.191-2.734-2.191
				c-4.078,0-5.109,5.828-5.566,8.707c-0.441,2.812-1.379,9.156,2.637,9.156c1.852,0,2.691-0.992,3.582-2.504h0.07L327.844,358.758
				 M326.336,356.152c-2.398,0-1.391-4.629-1.156-6.07c0.219-1.406,0.68-6.035,3.078-6.035c2.156,0,1.285,4.664,1.066,6.035
				C329.105,351.457,328.504,356.152,326.336,356.152z"/>
			<path fill="#231F20" d="M339.414,343.566h0.066c0.992-1.508,2.266-2.398,4.047-2.398l-0.504,3.184l-0.543-0.027
				c-2.406,0-3.367,1.332-3.719,3.531l-1.723,10.902h-3.258l2.746-17.316h3.215L339.414,343.566"/>
			<path fill="#231F20" d="M348.355,343.566h0.066c0.992-1.508,2.273-2.398,4.051-2.398l-0.508,3.184l-0.539-0.027
				c-2.398,0-3.367,1.332-3.711,3.531l-1.727,10.902h-3.258l2.738-17.316h3.223L348.355,343.566"/>
			<path fill="#231F20" d="M354.707,336.195c0.176-1.168,1.297-2.125,2.488-2.125c1.141,0,1.98,0.957,1.789,2.125
				c-0.188,1.199-1.332,2.16-2.465,2.16C355.32,338.355,354.512,337.395,354.707,336.195 M354.863,358.758h-3.219l2.738-17.316
				h3.227L354.863,358.758z"/>
			<path fill="#231F20" d="M368.758,350.734l0.078-0.512c0.566-3.57,0.883-9.055-3.816-9.055c-4.762,0-6.047,5.516-6.605,9.055
				c-0.578,3.664-0.949,8.809,3.883,8.809c3.637,0,5.504-2.918,6.012-6.105h-2.992c-0.207,1.34-0.816,3.227-2.527,3.227
				c-2.094,0-1.398-3.98-1.168-5.418H368.758 M361.988,348.438c0.207-1.332,0.559-4.391,2.582-4.391
				c1.953,0,1.465,3.059,1.254,4.391H361.988z"/>
			<path fill="#231F20" d="M375.309,343.566h0.066c0.992-1.508,2.266-2.398,4.047-2.398l-0.504,3.184l-0.543-0.027
				c-2.402,0-3.363,1.332-3.711,3.531l-1.73,10.902h-3.258l2.746-17.316h3.223L375.309,343.566"/>
			<path fill="#231F20" d="M397.383,336.875c-0.785-0.645-1.57-1.094-2.738-1.094c-1.887,0-3.293,1.547-3.574,3.328
				c-0.184,1.129-0.035,1.918,0.512,2.812l2.156,2.844c1.953,2.371,3.02,4.086,2.465,7.582c-0.574,3.633-3.332,6.75-7.137,6.75
				c-1.34,0-2.648-0.371-3.578-1.234l0.547-3.457c0.914,0.754,1.844,1.332,3.184,1.332c2.133,0,3.281-1.676,3.586-3.598
				c0.816-5.145-6.258-6.176-5.18-12.961c0.578-3.637,2.969-6.621,6.848-6.621c1.305,0,2.496,0.207,3.496,0.859L397.383,336.875"/>
			<path fill="#231F20" d="M404.07,358.758h3.219l2.746-17.316h-3.227l-0.305,1.918h-0.066c-0.383-1.27-1.23-2.191-2.742-2.191
				c-4.078,0-5.102,5.828-5.555,8.707c-0.445,2.812-1.383,9.156,2.629,9.156c1.852,0,2.691-0.992,3.586-2.504h0.066L404.07,358.758
				 M402.566,356.152c-2.398,0-1.402-4.629-1.172-6.07c0.227-1.406,0.684-6.035,3.082-6.035c2.168,0,1.285,4.664,1.066,6.035
				C405.328,351.457,404.719,356.152,402.566,356.152z"/>
			<path fill="#231F20" d="M413.566,341.441l0.887-5.594c0.465-2.945,1.16-5.828,4.828-5.828c0.824,0,1.414,0.18,2.082,0.484
				l-0.527,3.359c-0.41-0.238-0.762-0.414-1.273-0.414c-1.645,0-1.766,1.613-1.949,2.781l-0.82,5.211h2.672l-0.406,2.539h-2.672
				l-2.34,14.777h-3.219l2.336-14.777h-1.613l0.402-2.539H413.566"/>
			<path fill="#231F20" d="M429.445,350.734l0.082-0.512c0.562-3.57,0.879-9.055-3.816-9.055c-4.762,0-6.051,5.516-6.609,9.055
				c-0.586,3.664-0.949,8.809,3.883,8.809c3.633,0,5.504-2.918,6.008-6.105h-2.98c-0.215,1.34-0.816,3.227-2.535,3.227
				c-2.094,0-1.395-3.98-1.16-5.418H429.445 M422.676,348.438c0.211-1.332,0.559-4.391,2.578-4.391c1.961,0,1.477,3.059,1.262,4.391
				H422.676z"/>
			<polyline fill="#231F20" points="437.762,336.535 436.98,341.441 438.699,341.441 438.297,343.98 436.586,343.98 
				434.242,358.758 431.016,358.758 433.359,343.98 431.609,343.98 432.012,341.441 433.762,341.441 434.539,336.535 
				437.762,336.535 			"/>
			<polyline fill="#231F20" points="442.645,341.441 443.27,353.508 443.336,353.508 448.16,341.441 451.422,341.441 
				440.492,365.855 437.098,365.855 441.113,357.352 439.039,341.441 442.645,341.441 			"/>
			<path fill="#231F20" d="M465.285,332.902l-9.719,25.855h3.363l1.758-5.043h5.141l0.164,5.043h3.465l-1.465-25.855H465.285
				 M465.734,351.043h-4.109l4.133-13.137h0.07l-0.184,9.398L465.734,351.043z"/>
			<path fill="#231F20" d="M477.68,358.758h3.227l4.512-28.461h-3.227l-2.07,13.062h-0.066c-0.449-1.301-1.09-2.191-2.738-2.191
				c-4.082,0-5.102,5.828-5.566,8.707c-0.438,2.812-1.375,9.156,2.629,9.156c1.82,0,2.699-0.992,3.586-2.504h0.07L477.68,358.758
				 M476.176,356.152c-2.398,0-1.395-4.629-1.164-6.07c0.223-1.406,0.676-6.035,3.082-6.035c2.16,0,1.285,4.664,1.066,6.035
				C478.945,351.457,478.336,356.152,476.176,356.152z"/>
			<path fill="#231F20" d="M489.246,343.566h0.07c0.875-1.438,2.129-2.398,3.766-2.398c1.547,0,2.645,0.891,2.746,2.398h0.066
				c0.926-1.508,2.199-2.398,3.945-2.398c3.051,0,3.508,1.883,3.145,4.184l-2.125,13.406h-3.215l1.918-12.141
				c0.199-1.266,0.234-2.57-1.348-2.57c-2.293,0-2.391,2.156-2.637,3.703l-1.746,11.008h-3.219l1.859-11.762
				c0.184-1.371,0.469-2.949-1.379-2.949c-2.027,0-2.246,2.23-2.547,3.703l-1.746,11.008h-3.223l2.742-17.316h3.262L489.246,343.566
				"/>
			<path fill="#231F20" d="M506.594,336.195c0.188-1.168,1.297-2.125,2.5-2.125c1.129,0,1.973,0.957,1.793,2.125
				c-0.195,1.199-1.34,2.16-2.473,2.16C507.215,338.355,506.402,337.395,506.594,336.195 M506.762,358.758h-3.227l2.742-17.316
				h3.219L506.762,358.758z"/>
			<path fill="#231F20" d="M515.117,343.434h0.066c0.941-1.414,2.148-2.266,3.859-2.266c3.426,0,3.051,3.051,2.629,5.691
				l-1.887,11.898h-3.219l1.891-11.965c0.195-1.203,0.234-2.746-1.484-2.746c-2.125,0-2.336,2.43-2.574,3.91l-1.707,10.801h-3.227
				l2.746-17.316h3.223L515.117,343.434"/>
			<path fill="#231F20" d="M528.426,341.441h-3.223l-2.738,17.316h3.219L528.426,341.441 M527.34,338.355
				c1.133,0,2.277-0.961,2.469-2.16c0.18-1.168-0.66-2.125-1.785-2.125c-1.207,0-2.312,0.957-2.504,2.125
				C525.34,337.395,526.141,338.355,527.34,338.355z"/>
			<path fill="#231F20" d="M537.094,344.973c-0.527-0.555-1.465-0.926-2.258-0.926c-1.199,0-2.301,0.691-2.484,1.852
				c-0.391,2.91,4.93,3.051,4.152,7.988c-0.48,3.055-2.703,5.145-5.789,5.145c-1.129,0-1.816-0.238-2.68-0.82l0.5-3.16
				c0.723,0.656,1.398,1.102,2.5,1.102c1.406,0,2.297-0.859,2.512-2.199c0.48-3.051-4.91-3.25-4.148-8.055
				c0.438-2.738,2.637-4.73,5.383-4.73c1.094,0,1.953,0.207,2.793,0.754L537.094,344.973"/>
			<polyline fill="#231F20" points="544.977,336.535 544.199,341.441 545.918,341.441 545.516,343.98 543.797,343.98 
				541.461,358.758 538.234,358.758 540.578,343.98 538.824,343.98 539.23,341.441 540.98,341.441 541.758,336.535 544.977,336.535 
							"/>
			<path fill="#231F20" d="M550.512,343.566h0.074c0.992-1.508,2.266-2.398,4.047-2.398l-0.504,3.184l-0.547-0.027
				c-2.395,0-3.367,1.332-3.707,3.531l-1.73,10.902h-3.258l2.738-17.316h3.23L550.512,343.566"/>
			<path fill="#231F20" d="M560.656,358.758h3.227l2.738-17.316h-3.219l-0.305,1.918h-0.066c-0.387-1.27-1.23-2.191-2.742-2.191
				c-4.078,0-5.105,5.828-5.559,8.707c-0.441,2.812-1.387,9.156,2.633,9.156c1.848,0,2.688-0.992,3.586-2.504h0.066L560.656,358.758
				 M559.152,356.152c-2.398,0-1.395-4.629-1.168-6.07c0.223-1.406,0.688-6.035,3.086-6.035c2.156,0,1.285,4.664,1.066,6.035
				C561.914,351.457,561.312,356.152,559.152,356.152z"/>
			<polyline fill="#231F20" points="573.988,336.535 573.211,341.441 574.922,341.441 574.523,343.98 572.809,343.98 
				570.465,358.758 567.242,358.758 569.586,343.98 567.832,343.98 568.234,341.441 569.984,341.441 570.762,336.535 
				573.988,336.535 			"/>
			<path fill="#231F20" d="M576.918,336.195c0.188-1.168,1.297-2.125,2.5-2.125c1.129,0,1.969,0.957,1.793,2.125
				c-0.195,1.199-1.34,2.16-2.473,2.16C577.539,338.355,576.727,337.395,576.918,336.195 M577.086,358.758h-3.227l2.746-17.316
				h3.215L577.086,358.758z"/>
			<path fill="#231F20" d="M584.684,359.031c4.938,0,6.285-5.242,6.855-8.875c0.605-3.777,0.914-8.988-4.023-8.988
				s-6.277,5.211-6.879,8.988C580.062,353.789,579.746,359.031,584.684,359.031 M585.152,356.078c-2.469,0-1.418-4.695-1.223-5.922
				c0.219-1.379,0.652-6.039,3.117-6.039c2.473,0,1.426,4.66,1.207,6.039C588.059,351.383,587.621,356.078,585.152,356.078z"/>
			<path fill="#231F20" d="M598.023,343.434h0.074c0.938-1.414,2.137-2.266,3.855-2.266c3.426,0,3.043,3.051,2.629,5.691
				l-1.887,11.898h-3.223l1.895-11.965c0.195-1.203,0.23-2.746-1.484-2.746c-2.125,0-2.34,2.43-2.57,3.91l-1.711,10.801h-3.227
				l2.738-17.316h3.223L598.023,343.434"/>
		</g>
	</g>
</g>
</svg>
